<?xml version="1.0" encoding="UTF-8" standalone="no"?>
<!-- Created with Inkscape (http://www.inkscape.org/) -->

<svg
   width="45mm"
   height="50mm"
   viewBox="0 0 45 50"
   version="1.1"
   id="svg1"
   inkscape:version="1.3.2 (091e20ef0f, 2023-11-25)"
   sodipodi:docname="cabin3d-qr.svg"
   inkscape:export-filename="cabin3d-qr.png"
   inkscape:export-xdpi="96"
   inkscape:export-ydpi="96"
   xmlns:inkscape="http://www.inkscape.org/namespaces/inkscape"
   xmlns:sodipodi="http://sodipodi.sourceforge.net/DTD/sodipodi-0.dtd"
   xmlns="http://www.w3.org/2000/svg"
   xmlns:svg="http://www.w3.org/2000/svg">
  <sodipodi:namedview
     id="namedview1"
     pagecolor="#ffffff"
     bordercolor="#000000"
     borderopacity="0.25"
     inkscape:showpageshadow="2"
     inkscape:pageopacity="0.0"
     inkscape:pagecheckerboard="0"
     inkscape:deskcolor="#d1d1d1"
     inkscape:document-units="mm"
     inkscape:zoom="1.4805976"
     inkscape:cx="-15.871969"
     inkscape:cy="244.83357"
     inkscape:window-width="1920"
     inkscape:window-height="1011"
     inkscape:window-x="0"
     inkscape:window-y="32"
     inkscape:window-maximized="0"
     inkscape:current-layer="layer1"
     inkscape:export-bgcolor="#ffffffff" />
  <defs
     id="defs1" />
  <g
     inkscape:label="Layer 1"
     inkscape:groupmode="layer"
     id="layer1"
     transform="translate(-125.14791,-15.08125)">
    <text
       xml:space="preserve"
       style="font-style:normal;font-variant:normal;font-weight:normal;font-stretch:normal;font-size:6.35px;font-family:Helvetica;-inkscape-font-specification:Helvetica;fill:#000000;stroke:none;stroke-width:7.99999"
       x="147.63838"
       y="62.572247"
       id="text11"><tspan
         sodipodi:role="line"
         id="tspan9"
         style="font-weight:bold;font-size:6.35px;text-align:center;text-anchor:middle;fill:#000000;stroke-width:8"
         x="147.63838"
         y="62.572247">Cabin3D</tspan><tspan
         sodipodi:role="line"
         style="font-weight:bold;font-size:6.35px;fill:#000000;stroke-width:8"
         x="147.63838"
         y="70.509743"
         id="tspan12" /><tspan
         sodipodi:role="line"
         style="font-weight:bold;font-size:6.35px;fill:#000000;stroke-width:8"
         x="147.63838"
         y="78.447243"
         id="tspan13" /><tspan
         sodipodi:role="line"
         style="font-weight:bold;font-size:6.35px;fill:#000000;stroke-width:8"
         x="147.63838"
         y="86.384743"
         id="tspan10" /><tspan
         sodipodi:role="line"
         style="font-weight:bold;font-size:6.35px;fill:#000000;stroke-width:8"
         x="147.63838"
         y="94.322243"
         id="tspan11" /></text>
    <path
       d="m 162.87096,52.515208 h -2.2098 c -0.0679,0 -0.12276,-0.05494 -0.12276,-0.122766 v -2.209797 c 0,-0.06783 0.055,-0.122767 0.12276,-0.122767 h 1.1049 v 1.104899 c 0,0.06782 0.055,0.122766 0.12276,0.122766 h 0.98214 c 0.0679,0 0.12276,0.05494 0.12276,0.122766 v 0.982133 c 0,0.06782 -0.055,0.122766 -0.12276,0.122766 z m -6.13833,0 h -2.2098 c -0.0679,0 -0.12276,-0.05494 -0.12276,-0.122766 v -0.982133 c 0,-0.06782 -0.055,-0.122766 -0.12277,-0.122766 h -0.98213 c -0.0677,0 -0.12277,0.05494 -0.12277,0.122766 v 0.982133 c 0,0.06782 -0.055,0.122766 -0.12277,0.122766 h -2.2098 c -0.0677,0 -0.12276,-0.05494 -0.12276,-0.122766 v -0.982133 c 0,-0.06782 -0.055,-0.122766 -0.12276,-0.122766 h -0.98214 c -0.0677,0 -0.12276,0.05494 -0.12276,0.122766 v 0.982133 c 0,0.06782 -0.055,0.122766 -0.12276,0.122766 h -2.2098 c -0.0679,0 -0.12277,-0.05494 -0.12277,-0.122766 v -1.104899 h 1.10489 c 0.0677,0 0.12278,-0.05494 0.12278,-0.122766 V 48.95498 c 0,-0.06782 -0.055,-0.122766 -0.12278,-0.122766 h -0.98212 c -0.0679,0 -0.12277,-0.05494 -0.12277,-0.122767 V 46.49965 c 0,-0.0678 0.055,-0.122766 0.12277,-0.122766 h 0.98212 c 0.0677,0 0.12278,-0.05497 0.12278,-0.122766 v -0.982133 c 0,-0.0678 -0.055,-0.122766 -0.12278,-0.122766 h -0.98212 c -0.0679,0 -0.12277,-0.05497 -0.12277,-0.122766 v -2.209797 c 0,-0.0678 -0.055,-0.122766 -0.12277,-0.122766 h -0.98213 c -0.0679,0 -0.12277,-0.05497 -0.12277,-0.122767 v -0.982132 c 0,-0.0678 -0.055,-0.122766 -0.12276,-0.122766 h -0.98214 c -0.0677,0 -0.12276,0.05497 -0.12276,0.122766 v 0.982132 c 0,0.0678 -0.055,0.122767 -0.12276,0.122767 h -1.1049 v -1.104899 c 0,-0.0678 -0.055,-0.122766 -0.12277,-0.122766 h -0.98213 c -0.0679,0 -0.12277,-0.05497 -0.12277,-0.122766 v -0.982133 c 0,-0.0678 0.055,-0.122766 0.12277,-0.122766 h 0.98213 c 0.0677,0 0.12277,-0.05497 0.12277,-0.122766 V 37.78323 h 1.1049 c 0.0677,0 0.12276,0.05497 0.12276,0.122767 v 0.982132 c 0,0.0678 0.055,0.122766 0.12276,0.122766 h 0.98214 c 0.0677,0 0.12276,0.05497 0.12276,0.122766 v 0.982133 c 0,0.0678 0.055,0.122766 0.12277,0.122766 h 0.98213 c 0.0677,0 0.12277,0.05497 0.12277,0.122766 v 0.982133 c 0,0.0678 0.055,0.122766 0.12277,0.122766 h 0.98212 c 0.0677,0 0.12278,-0.05497 0.12278,-0.122766 v -2.209798 c 0,-0.0678 -0.055,-0.122766 -0.12278,-0.122766 h -0.98212 c -0.0679,0 -0.12277,-0.05497 -0.12277,-0.122766 v -0.982132 c 0,-0.0678 -0.055,-0.122767 -0.12277,-0.122767 h -0.98213 c -0.0679,0 -0.12277,-0.05497 -0.12277,-0.122766 v -0.982132 c 0,-0.0678 0.055,-0.122766 0.12277,-0.122766 h 0.98213 c 0.0677,0 0.12277,-0.05497 0.12277,-0.122767 v -2.209797 c 0,-0.0678 0.055,-0.122766 0.12277,-0.122766 h 1.1049 v 1.104899 c 0,0.0678 0.055,0.122766 0.12276,0.122766 h 3.43746 c 0.0679,0 0.12276,0.05497 0.12276,0.122766 v 0.982132 c 0,0.0678 0.055,0.122767 0.12278,0.122767 h 0.98212 c 0.0679,0 0.12277,-0.05497 0.12277,-0.122767 v -0.982132 c 0,-0.0678 0.055,-0.122766 0.12277,-0.122766 h 0.98213 c 0.0679,0 0.12277,-0.05497 0.12277,-0.122766 v -2.209798 c 0,-0.0678 -0.055,-0.122766 -0.12277,-0.122766 h -0.98213 c -0.0677,0 -0.12277,0.05497 -0.12277,0.122766 v 0.982133 c 0,0.0678 -0.055,0.122766 -0.12277,0.122766 h -0.98212 c -0.0677,0 -0.12278,-0.05497 -0.12278,-0.122766 v -2.209797 c 0,-0.0678 -0.055,-0.122767 -0.12276,-0.122767 h -0.98214 c -0.0677,0 -0.12276,-0.05497 -0.12276,-0.122766 v -1.104898 h 1.1049 c 0.0679,0 0.12276,-0.05497 0.12276,-0.122767 v -1.104898 h 1.1049 c 0.0679,0 0.12277,0.05497 0.12277,0.122766 v 2.209797 c 0,0.0678 0.055,0.122766 0.12277,0.122766 h 2.2098 c 0.0677,0 0.12276,0.05497 0.12276,0.122767 v 2.209797 c 0,0.0678 0.055,0.122766 0.12277,0.122766 h 2.2098 c 0.0677,0 0.12276,0.05497 0.12276,0.122766 v 0.982133 c 0,0.0678 -0.055,0.122766 -0.12276,0.122766 h -0.98214 c -0.0677,0 -0.12276,0.05497 -0.12276,0.122766 v 0.982132 c 0,0.0678 -0.055,0.122767 -0.12277,0.122767 h -0.98213 c -0.0677,0 -0.12277,0.05497 -0.12277,0.122766 v 2.209797 c 0,0.0678 0.055,0.122766 0.12277,0.122766 h 0.98213 c 0.0677,0 0.12277,0.05497 0.12277,0.122766 v 1.104899 h -1.1049 c -0.0677,0 -0.12277,0.05497 -0.12277,0.122766 v 0.982133 c 0,0.0678 0.055,0.122766 0.12277,0.122766 h 0.98213 c 0.0677,0 0.12277,-0.05497 0.12277,-0.122766 V 40.23856 h 1.1049 c 0.0677,0 0.12276,0.05497 0.12276,0.122766 v 0.982133 c 0,0.0678 0.055,0.122766 0.12277,0.122766 h 0.98213 c 0.0679,0 0.12277,0.05497 0.12277,0.122766 v 5.892792 c 0,0.0678 0.055,0.122766 0.12277,0.122766 h 1.1049 v 1.104898 c 0,0.06783 -0.055,0.122767 -0.12278,0.122767 h -2.20979 c -0.0679,0 -0.12277,0.05494 -0.12277,0.122766 v 0.982132 c 0,0.06782 0.055,0.122766 0.12277,0.122766 h 0.98213 c 0.0679,0 0.12277,0.05494 0.12277,0.122767 v 0.982132 c 0,0.06782 -0.055,0.122766 -0.12277,0.122766 H 156.8554 V 48.95498 c 0,-0.06782 -0.055,-0.122766 -0.12277,-0.122766 h -0.98213 c -0.0677,0 -0.12277,-0.05494 -0.12277,-0.122767 v -0.982132 c 0,-0.06782 -0.055,-0.122766 -0.12276,-0.122766 h -2.2098 c -0.0677,0 -0.12277,0.05494 -0.12277,0.122766 v 2.209797 c 0,0.06782 0.055,0.122766 0.12277,0.122766 h 2.2098 c 0.0677,0 0.12276,0.05494 0.12276,0.122767 v 0.982132 c 0,0.06782 0.055,0.122766 0.12277,0.122766 h 1.1049 v 1.104899 c 0,0.06782 -0.055,0.122766 -0.12277,0.122766 z m -11.04898,0 h -3.43746 c -0.0679,0 -0.12277,-0.05494 -0.12277,-0.122766 V 48.95498 c 0,-0.06782 0.055,-0.122766 0.12277,-0.122766 h 2.33256 v 1.104898 c 0,0.06782 0.055,0.122766 0.12276,0.122766 h 2.2098 c 0.0677,0 0.12277,0.05494 0.12277,0.122767 v 1.104898 h -1.1049 c -0.0679,0 -0.12277,0.05494 -0.12277,0.122766 v 0.982133 c 0,0.06782 -0.055,0.122766 -0.12276,0.122766 z m -4.91066,0 h -8.34813 c -0.0677,0 -0.12276,-0.05494 -0.12276,-0.122766 v -8.348121 c 0,-0.0678 0.055,-0.122767 0.12276,-0.122767 h 8.34813 c 0.0679,0 0.12276,0.05497 0.12276,0.122767 v 8.348121 c 0,0.06782 -0.055,0.122766 -0.12276,0.122766 z m -1.1049,-1.350431 v -5.892792 c 0,-0.0678 -0.055,-0.122766 -0.12277,-0.122766 h -5.89278 c -0.0679,0 -0.12278,0.05497 -0.12278,0.122766 v 5.892792 c 0,0.06782 0.055,0.122766 0.12278,0.122766 h 5.89278 c 0.0679,0 0.12277,-0.05494 0.12277,-0.122766 z m 23.20287,-1.104899 h -1.1049 V 48.95498 c 0,-0.06782 0.055,-0.122766 0.12276,-0.122766 h 0.98214 c 0.0679,0 0.12276,0.05494 0.12276,0.122766 v 0.982132 c 0,0.06782 -0.055,0.122766 -0.12276,0.122766 z M 151.94473,49.937112 V 48.95498 c 0,-0.06782 -0.055,-0.122766 -0.12276,-0.122766 h -1.1049 v -1.104899 c 0,-0.06782 0.055,-0.122766 0.12276,-0.122766 h 0.98214 c 0.0679,0 0.12276,-0.05497 0.12276,-0.122766 v -2.209798 c 0,-0.0678 -0.055,-0.122766 -0.12276,-0.122766 h -1.1049 v -1.104898 c 0,-0.0678 0.055,-0.122767 0.12276,-0.122767 h 0.98214 c 0.0679,0 0.12276,-0.05497 0.12276,-0.122766 v -2.209797 c 0,-0.0678 0.055,-0.122766 0.12278,-0.122766 h 2.20979 c 0.0679,0 0.12277,-0.05497 0.12277,-0.122766 v -2.209798 c 0,-0.0678 -0.055,-0.122766 -0.12277,-0.122766 h -0.98213 c -0.0677,0 -0.12277,0.05497 -0.12277,0.122766 v 0.982133 c 0,0.0678 -0.055,0.122766 -0.12277,0.122766 h -0.98212 c -0.0677,0 -0.12278,-0.05497 -0.12278,-0.122766 v -2.209797 c 0,-0.0678 -0.055,-0.122767 -0.12276,-0.122767 h -1.1049 v -1.104898 c 0,-0.0678 -0.055,-0.122766 -0.12276,-0.122766 h -0.98214 c -0.0677,0 -0.12276,0.05497 -0.12276,0.122766 v 0.982132 c 0,0.0678 0.055,0.122766 0.12276,0.122766 h 1.1049 v 4.787893 c 0,0.0678 -0.055,0.122767 -0.12276,0.122767 h -2.2098 c -0.0677,0 -0.12276,0.05497 -0.12276,0.122766 v 0.982132 c 0,0.0678 0.055,0.122766 0.12276,0.122766 h 0.98214 c 0.0677,0 0.12276,0.05497 0.12276,0.122767 v 0.982132 c 0,0.0678 0.055,0.122766 0.12276,0.122766 h 1.1049 v 1.104899 c 0,0.0678 -0.055,0.122766 -0.12276,0.122766 h -0.98214 c -0.0677,0 -0.12276,0.05497 -0.12276,0.122766 v 2.209797 c 0,0.06783 0.055,0.122767 0.12276,0.122767 h 1.1049 v 1.104898 c 0,0.06782 0.055,0.122766 0.12276,0.122766 h 0.98214 c 0.0679,0 0.12276,-0.05494 0.12276,-0.122766 z m -13.62707,0.122766 h -3.43746 c -0.0677,0 -0.12276,-0.05494 -0.12276,-0.122766 V 46.49965 c 0,-0.0678 0.055,-0.122766 0.12276,-0.122766 h 3.43746 c 0.0678,0 0.12276,0.05497 0.12276,0.122766 v 3.437462 c 0,0.06782 -0.055,0.122766 -0.12276,0.122766 z m 7.36599,-1.227664 h -1.1049 v -3.560229 c 0,-0.0678 -0.055,-0.122766 -0.12276,-0.122766 h -0.98214 c -0.0677,0 -0.12276,0.05497 -0.12276,0.122766 v 2.209798 c 0,0.0678 -0.055,0.122766 -0.12277,0.122766 h -0.98213 c -0.0679,0 -0.12277,-0.05497 -0.12277,-0.122766 v -4.665127 c 0,-0.0678 0.055,-0.122766 0.12277,-0.122766 h 1.1049 v 1.104898 c 0,0.0678 0.055,0.122766 0.12276,0.122766 h 2.2098 c 0.0677,0 0.12276,0.05497 0.12276,0.122767 v 4.665126 c 0,0.06783 -0.055,0.122767 -0.12276,0.122767 z m 15.95964,-1.227665 H 160.5384 V 46.49965 c 0,-0.0678 0.055,-0.122766 0.12276,-0.122766 h 0.98213 c 0.0679,0 0.12277,0.05497 0.12277,0.122766 v 0.982133 c 0,0.0678 -0.055,0.122766 -0.12277,0.122766 z m -4.78789,-1.350431 v -3.437462 c 0,-0.0678 -0.055,-0.122766 -0.12277,-0.122766 h -3.43746 c -0.0677,0 -0.12277,0.05497 -0.12277,0.122766 v 3.437462 c 0,0.0678 0.055,0.122766 0.12277,0.122766 h 3.43746 c 0.0677,0 0.12277,-0.05497 0.12277,-0.122766 z m 6.01556,-1.104899 h -2.2098 c -0.0679,0 -0.12276,-0.05497 -0.12276,-0.122766 v -2.209797 c 0,-0.0678 0.055,-0.122766 0.12276,-0.122766 h 2.2098 c 0.0679,0 0.12276,0.05497 0.12276,0.122766 v 2.209797 c 0,0.0678 -0.055,0.122766 -0.12276,0.122766 z m -7.36599,0 h -0.98214 c -0.0679,0 -0.12276,-0.05497 -0.12276,-0.122766 v -0.982132 c 0,-0.0678 0.055,-0.122767 0.12276,-0.122767 h 0.98214 c 0.0677,0 0.12276,0.05497 0.12276,0.122767 v 0.982132 c 0,0.0678 -0.055,0.122766 -0.12276,0.122766 z M 140.77299,42.69389 h -2.2098 c -0.0677,0 -0.12277,-0.05497 -0.12277,-0.122767 v -0.982132 c 0,-0.0678 0.055,-0.122766 0.12277,-0.122766 h 2.2098 c 0.0679,0 0.12277,0.05497 0.12277,0.122766 v 0.982132 c 0,0.0678 -0.055,0.122767 -0.12277,0.122767 z m -3.68299,0 h -0.98214 c -0.0677,0 -0.12276,-0.05497 -0.12276,-0.122767 v -2.209797 c 0,-0.0678 0.055,-0.122766 0.12276,-0.122766 H 137.09 c 0.0677,0 0.12276,0.05497 0.12276,0.122766 v 2.209797 c 0,0.0678 -0.055,0.122767 -0.12276,0.122767 z m -3.683,0 h -0.98214 c -0.0677,0 -0.12276,-0.05497 -0.12276,-0.122767 v -0.982132 c 0,-0.0678 0.055,-0.122766 0.12276,-0.122766 h 1.1049 v 1.104898 c 0,0.0678 -0.055,0.122767 -0.12276,0.122767 z m 28.23629,-1.227665 h -0.98213 c -0.0679,0 -0.12276,-0.05497 -0.12276,-0.122766 v -0.982133 c 0,-0.0678 -0.055,-0.122766 -0.12278,-0.122766 h -0.98212 c -0.0679,0 -0.12277,-0.05497 -0.12277,-0.122766 v -1.104899 h 2.33256 c 0.0679,0 0.12277,-0.05497 0.12277,-0.122766 v -0.982132 c 0,-0.0678 -0.055,-0.122767 -0.12277,-0.122767 h -0.98213 c -0.0679,0 -0.12276,-0.05497 -0.12276,-0.122766 v -2.209797 c 0,-0.0678 -0.055,-0.122766 -0.12278,-0.122766 h -0.98212 c -0.0679,0 -0.12277,-0.05497 -0.12277,-0.122766 v -0.982133 c 0,-0.0678 0.055,-0.122766 0.12277,-0.122766 h 2.20979 c 0.0679,0 0.12277,-0.05497 0.12277,-0.122766 v -0.982133 c 0,-0.0678 0.055,-0.122766 0.12276,-0.122766 h 0.98214 c 0.0679,0 0.12276,0.05497 0.12276,0.122766 v 2.209798 c 0,0.0678 -0.055,0.122766 -0.12276,0.122766 h -0.98214 c -0.0679,0 -0.12276,0.05497 -0.12276,0.122766 v 0.982132 c 0,0.0678 0.055,0.122767 0.12276,0.122767 h 0.98214 c 0.0679,0 0.12276,0.05497 0.12276,0.122766 v 3.437462 c 0,0.0678 -0.055,0.122766 -0.12276,0.122766 h -0.98214 c -0.0679,0 -0.12276,0.05497 -0.12276,0.122766 v 0.982133 c 0,0.0678 -0.055,0.122766 -0.12277,0.122766 z m -27.00863,0 h -1.1049 V 40.23856 h 1.1049 c 0.0677,0 0.12278,0.05497 0.12278,0.122766 v 0.982133 c 0,0.0678 -0.055,0.122766 -0.12278,0.122766 z m 6.13833,-1.227665 h -0.98213 c -0.0677,0 -0.12277,-0.05497 -0.12277,-0.122766 v -0.982133 c 0,-0.0678 0.055,-0.122766 0.12277,-0.122766 h 1.1049 v 1.104899 c 0,0.0678 -0.055,0.122766 -0.12277,0.122766 z m -7.36599,0 h -0.98214 c -0.0677,0 -0.12276,-0.05497 -0.12276,-0.122766 v -0.982133 c 0,-0.0678 0.055,-0.122766 0.12276,-0.122766 h 1.1049 v 1.227665 z m 25.78096,-1.227665 h -0.98213 c -0.0679,0 -0.12277,-0.05497 -0.12277,-0.122766 v -2.209797 c 0,-0.0678 0.055,-0.122766 0.12277,-0.122766 h 0.98213 c 0.0679,0 0.12277,0.05497 0.12277,0.122766 v 2.332563 z m -17.18731,0 h -1.10489 v -1.104898 c 0,-0.0678 -0.055,-0.122767 -0.12277,-0.122767 h -0.98213 c -0.0677,0 -0.12277,-0.05497 -0.12277,-0.122766 v -0.982132 c 0,-0.0678 0.055,-0.122766 0.12277,-0.122766 h 0.98213 c 0.0679,0 0.12277,-0.05497 0.12277,-0.122767 v -0.982132 c 0,-0.0678 -0.055,-0.122766 -0.12277,-0.122766 h -0.98213 c -0.0677,0 -0.12277,-0.05497 -0.12277,-0.122766 v -0.982133 c 0,-0.0678 0.055,-0.122766 0.12277,-0.122766 h 0.98213 c 0.0679,0 0.12277,-0.05497 0.12277,-0.122766 v -0.982133 c 0,-0.0678 -0.055,-0.122766 -0.12277,-0.122766 h -3.56023 v -1.104898 c 0,-0.0678 0.055,-0.122767 0.12276,-0.122767 h 4.66513 c 0.0679,0 0.12277,-0.05497 0.12277,-0.122766 v -2.209797 c 0,-0.0678 0.055,-0.122766 0.12277,-0.122766 h 1.1049 v 1.104898 c 0,0.0678 0.055,0.122767 0.12276,0.122767 h 0.98214 c 0.0677,0 0.12276,-0.05497 0.12276,-0.122767 v -1.104898 h 1.22766 v 4.787893 c 0,0.0678 -0.055,0.122766 -0.12276,0.122766 h -1.1049 v -2.332563 c 0,-0.0678 -0.055,-0.122767 -0.12276,-0.122767 h -0.98214 c -0.0677,0 -0.12276,0.05497 -0.12276,0.122767 v 2.209797 c 0,0.0678 0.055,0.122766 0.12276,0.122766 h 1.1049 v 1.104899 c 0,0.0678 -0.055,0.122766 -0.12276,0.122766 h -0.98214 c -0.0677,0 -0.12276,0.05497 -0.12276,0.122766 v 2.332563 h -1.1049 c -0.0679,0 -0.12277,0.05497 -0.12277,0.122767 v 0.982132 c 0,0.0678 -0.055,0.122766 -0.12277,0.122766 z m -3.68299,0 h -4.7879 v -1.104898 c 0,-0.0678 0.055,-0.122767 0.12278,-0.122767 h 2.20978 c 0.0677,0 0.12278,-0.05497 0.12278,-0.122766 v -1.104898 h 1.1049 c 0.0677,0 0.12276,-0.05497 0.12276,-0.122767 v -1.104898 h 1.1049 c 0.0678,0 0.12276,0.05497 0.12276,0.122766 v 3.437462 c 0,0.0678 -0.055,0.122766 -0.12276,0.122766 z m -2.45534,-2.455329 h -3.43746 c -0.0677,0 -0.12276,-0.05497 -0.12276,-0.122767 v -0.982132 c 0,-0.0678 0.055,-0.122766 0.12276,-0.122766 h 3.56024 v 1.227665 z M 137.09,35.327901 h -1.1049 v -2.45533 h 1.22766 v 2.45533 z m 13.50431,-1.227665 h -2.33256 v -3.682994 h 1.22766 v 2.332563 c 0,0.0678 0.055,0.122766 0.12276,0.122766 h 0.98214 c 0.0677,0 0.12276,0.05497 0.12276,0.122766 v 0.982133 c 0,0.0678 -0.055,0.122766 -0.12276,0.122766 z m -15.95965,0 h -2.2098 c -0.0677,0 -0.12276,-0.05497 -0.12276,-0.122766 v -2.209797 c 0,-0.0678 0.055,-0.122767 0.12276,-0.122767 h 3.43746 c 0.0677,0 0.12278,0.05497 0.12278,0.122767 v 1.104898 h -1.1049 c -0.0677,0 -0.12276,0.05497 -0.12276,0.122766 v 0.982133 c 0,0.0678 -0.055,0.122766 -0.12278,0.122766 z m 25.78096,-1.227665 h -0.98212 c -0.0679,0 -0.12277,-0.05497 -0.12277,-0.122766 v -0.982132 c 0,-0.0678 0.055,-0.122767 0.12277,-0.122767 h 0.98212 c 0.0679,0 0.12278,0.05497 0.12278,0.122767 v 0.982132 c 0,0.0678 -0.055,0.122766 -0.12278,0.122766 z m 2.45534,-2.455329 h -8.34813 c -0.0679,0 -0.12276,-0.05497 -0.12276,-0.122767 v -8.348121 c 0,-0.0678 0.055,-0.122766 0.12276,-0.122766 h 8.34813 c 0.0679,0 0.12276,0.05497 0.12276,0.122766 v 8.348121 c 0,0.0678 -0.055,0.122767 -0.12276,0.122767 z m -12.27665,0 h -1.1049 v -2.332564 c 0,-0.0678 -0.055,-0.122766 -0.12276,-0.122766 h -1.1049 v -1.104899 c 0,-0.0678 0.055,-0.122766 0.12276,-0.122766 h 2.2098 c 0.0677,0 0.12276,-0.05497 0.12276,-0.122766 v -2.209797 c 0,-0.0678 -0.055,-0.122766 -0.12276,-0.122766 h -2.2098 c -0.0677,0 -0.12276,-0.05497 -0.12276,-0.122767 v -1.104898 h 1.1049 c 0.0677,0 0.12276,-0.05497 0.12276,-0.122766 v -0.982133 c 0,-0.0678 0.055,-0.122766 0.12276,-0.122766 h 2.2098 c 0.0679,0 0.12276,0.05497 0.12276,0.122766 v 0.982133 c 0,0.0678 0.055,0.122766 0.12278,0.122766 h 0.98212 c 0.0679,0 0.12278,0.05497 0.12278,0.122766 v 0.982132 c -1e-5,0.0678 -0.055,0.122767 -0.12278,0.122767 h -0.98212 c -0.0677,0 -0.12278,0.05497 -0.12278,0.122766 v 4.787893 h -1.1049 c -0.0677,0 -0.12276,0.05497 -0.12276,0.122766 v 1.104899 z m -2.45534,0 h -0.98212 c -0.0679,0 -0.12277,-0.05497 -0.12277,-0.122767 v -0.982132 c 0,-0.0678 -0.055,-0.122766 -0.12277,-0.122766 h -1.1049 v -1.104899 c 0,-0.0678 -0.055,-0.122766 -0.12276,-0.122766 h -1.1049 v -1.104899 c 0,-0.0678 -0.055,-0.122766 -0.12276,-0.122766 h -0.98214 c -0.0677,0 -0.12276,-0.05497 -0.12276,-0.122766 v -0.982132 c 0,-0.0678 -0.055,-0.122767 -0.12277,-0.122767 h -0.98213 c -0.0679,0 -0.12277,-0.05497 -0.12277,-0.122766 v -0.982132 c 0,-0.0678 0.055,-0.122766 0.12277,-0.122766 h 2.2098 c 0.0677,0 0.12276,-0.05497 0.12276,-0.122767 v -0.982132 c 0,-0.0678 -0.055,-0.122766 -0.12276,-0.122766 h -0.98214 c -0.0677,0 -0.12276,-0.05497 -0.12276,-0.122766 v -0.982133 c 0,-0.0678 0.055,-0.122766 0.12276,-0.122766 h 2.2098 c 0.0677,0 0.12276,0.05497 0.12276,0.122766 v 0.982133 c 0,0.0678 0.055,0.122766 0.12277,0.122766 h 1.1049 v 1.104898 c 0,0.0678 -0.055,0.122767 -0.12277,0.122767 h -0.98213 c -0.0679,0 -0.12277,0.05497 -0.12277,0.122766 v 0.982132 c 0,0.0678 0.055,0.122766 0.12277,0.122766 h 0.98213 c 0.0677,0 0.12277,0.05497 0.12277,0.122767 v 2.209797 c 0,0.0678 0.055,0.122766 0.12277,0.122766 h 1.1049 v 2.45533 z m -7.36598,0 h -8.34813 c -0.0677,0 -0.12276,-0.05497 -0.12276,-0.122767 v -8.348121 c 0,-0.0678 0.055,-0.122766 0.12276,-0.122766 h 8.34813 c 0.0679,0 0.12276,0.05497 0.12276,0.122766 v 8.348121 c 1e-5,0.0678 -0.055,0.122767 -0.12276,0.122767 z m 20.99307,-1.350431 v -5.892792 c 0,-0.0678 -0.055,-0.122766 -0.12277,-0.122766 h -5.89279 c -0.0677,0 -0.12277,0.05497 -0.12277,0.122766 v 5.892792 c 0,0.0678 0.055,0.122766 0.12277,0.122766 h 5.89279 c 0.0679,0 0.12277,-0.05497 0.12277,-0.122766 z m -17.31007,0.122766 h -1.1049 v -1.104899 c 0,-0.0678 0.055,-0.122766 0.12276,-0.122766 h 1.1049 v 1.227665 z m -4.7879,-0.122766 v -5.892792 c 0,-0.0678 -0.055,-0.122766 -0.12277,-0.122766 h -5.89278 c -0.0679,0 -0.12278,0.05497 -0.12278,0.122766 v 5.892792 c 0,0.0678 0.055,0.122766 0.12278,0.122766 h 5.89278 c 0.0679,0 0.12277,-0.05497 0.12277,-0.122766 z m 20.74753,-1.104899 h -3.43746 c -0.0677,0 -0.12276,-0.05497 -0.12276,-0.122766 v -3.437462 c 0,-0.0678 0.055,-0.122766 0.12276,-0.122766 h 3.43746 c 0.0679,0 0.12278,0.05497 0.12278,0.122766 v 3.437462 c 0,0.0678 -0.055,0.122766 -0.12278,0.122766 z m -22.09796,0 h -3.43746 c -0.0677,0 -0.12276,-0.05497 -0.12276,-0.122766 v -3.437462 c 0,-0.0678 0.055,-0.122766 0.12276,-0.122766 h 3.43746 c 0.0678,0 0.12276,0.05497 0.12276,0.122766 v 3.437462 c 0,0.0678 -0.055,0.122766 -0.12276,0.122766 z m 9.82131,-4.910659 h -1.10489 v -1.104899 c 0,-0.0678 0.055,-0.122766 0.12277,-0.122766 h 0.98212 c 0.0677,0 0.12278,0.05497 0.12278,0.122766 v 1.104899 z"
       id="path1"
       style="fill:#000000;stroke:none;stroke-width:0.306916" />
  </g>
</svg>
