<?xml version="1.0" encoding="UTF-8" standalone="no"?>
<!-- Created with Inkscape (http://www.inkscape.org/) -->

<svg
   width="45mm"
   height="50mm"
   viewBox="0 0 45 50"
   version="1.1"
   id="svg1"
   inkscape:version="1.3.2 (091e20ef0f, 2023-11-25)"
   sodipodi:docname="essen-log-cabin-ar-qr.svg"
   inkscape:export-filename="essen-log-cabin-ar-qr.png"
   inkscape:export-xdpi="96"
   inkscape:export-ydpi="96"
   xmlns:inkscape="http://www.inkscape.org/namespaces/inkscape"
   xmlns:sodipodi="http://sodipodi.sourceforge.net/DTD/sodipodi-0.dtd"
   xmlns="http://www.w3.org/2000/svg"
   xmlns:svg="http://www.w3.org/2000/svg">
  <sodipodi:namedview
     id="namedview1"
     pagecolor="#ffffff"
     bordercolor="#000000"
     borderopacity="0.25"
     inkscape:showpageshadow="2"
     inkscape:pageopacity="0.0"
     inkscape:pagecheckerboard="0"
     inkscape:deskcolor="#d1d1d1"
     inkscape:document-units="mm"
     inkscape:zoom="1.4805976"
     inkscape:cx="-15.871969"
     inkscape:cy="244.83357"
     inkscape:window-width="1920"
     inkscape:window-height="1011"
     inkscape:window-x="0"
     inkscape:window-y="32"
     inkscape:window-maximized="0"
     inkscape:current-layer="layer1"
     inkscape:export-bgcolor="#ffffffff" />
  <defs
     id="defs1" />
  <g
     inkscape:label="Layer 1"
     inkscape:groupmode="layer"
     id="layer1"
     transform="translate(-125.14791,-15.08125)">
    <g
       id="g6"
       transform="translate(18.151578,-208.45284)">
      <text
         xml:space="preserve"
         style="font-style:normal;font-variant:normal;font-weight:normal;font-stretch:normal;font-size:6.35px;font-family:Helvetica;-inkscape-font-specification:Helvetica;fill:#000000;stroke:none;stroke-width:7.99999"
         x="124.97195"
         y="271.02509"
         id="text11"><tspan
           sodipodi:role="line"
           id="tspan9"
           style="font-weight:bold;font-size:6.35px;fill:#000000;stroke-width:8"
           x="124.97195"
           y="271.02509">AR</tspan><tspan
           sodipodi:role="line"
           style="font-weight:bold;font-size:6.35px;fill:#000000;stroke-width:8"
           x="124.97195"
           y="278.96259"
           id="tspan12" /><tspan
           sodipodi:role="line"
           style="font-weight:bold;font-size:6.35px;fill:#000000;stroke-width:8"
           x="124.97195"
           y="286.90009"
           id="tspan13" /><tspan
           sodipodi:role="line"
           style="font-weight:bold;font-size:6.35px;fill:#000000;stroke-width:8"
           x="124.97195"
           y="294.83759"
           id="tspan10" /><tspan
           sodipodi:role="line"
           style="font-weight:bold;font-size:6.35px;fill:#000000;stroke-width:8"
           x="124.97195"
           y="302.77509"
           id="tspan11" /></text>
      <g
         inkscape:label="QR Code: https://archbridge.us/essen-log-cabin-ar"
         transform="matrix(0.264583,0,0,0.264583,109.91719,226.0431)"
         id="g25">
        <rect
           x="0"
           y="0"
           width="148"
           height="148"
           style="fill:#ffffff;stroke:none"
           id="rect23" />
        <g
           style="fill:#000000;stroke:none"
           id="g24">
          <path
             d="m 123.6,132 h -3.2 c -0.221,0 -0.4,-0.179 -0.4,-0.4 V 128 h 4 v 3.6 c 0,0.221 -0.179,0.4 -0.4,0.4 z m -8,0 h -3.2 c -0.221,0 -0.4,-0.179 -0.4,-0.4 v -3.2 c 0,-0.221 -0.179,-0.4 -0.4,-0.4 h -3.2 c -0.221,0 -0.4,-0.179 -0.4,-0.4 v -3.2 c 0,-0.221 -0.179,-0.4 -0.4,-0.4 H 100 v -4 h 7.6 c 0.221,0 0.4,-0.179 0.4,-0.4 v -3.2 c 0,-0.221 -0.179,-0.4 -0.4,-0.4 h -7.2 c -0.221,0 -0.4,0.179 -0.4,0.4 v 3.6 h -3.6 c -0.2209,0 -0.4,0.179 -0.4,0.4 v 3.6 h -4 v -3.6 c 0,-0.221 -0.1791,-0.4 -0.4,-0.4 h -7.2 c -0.2209,0 -0.4,0.179 -0.4,0.4 v 7.6 h -3.6 c -0.2209,0 -0.4,-0.179 -0.4,-0.4 v -3.2 c 0,-0.221 -0.1791,-0.4 -0.4,-0.4 h -7.2 c -0.2209,0 -0.4,0.179 -0.4,0.4 v 3.6 h -3.6 c -0.2209,0 -0.4,0.179 -0.4,0.4 v 3.2 c 0,0.221 -0.1791,0.4 -0.4,0.4 h -3.2 c -0.2209,0 -0.4,-0.179 -0.4,-0.4 v -7.2 c 0,-0.221 0.1791,-0.4 0.4,-0.4 h 3.2 c 0.2209,0 0.4,-0.179 0.4,-0.4 v -3.2 C 68,120.179 67.8209,120 67.6,120 H 64.4 C 64.1791,120 64,119.821 64,119.6 V 116 h 12 v 3.6 c 0,0.221 0.1791,0.4 0.4,0.4 h 3.2 c 0.2209,0 0.4,-0.179 0.4,-0.4 V 116 h 3.6 c 0.2209,0 0.4,-0.179 0.4,-0.4 V 112 h 3.6 c 0.2209,0 0.4,0.179 0.4,0.4 v 3.2 c 0,0.221 0.1791,0.4 0.4,0.4 h 7.2 c 0.2209,0 0.4,-0.179 0.4,-0.4 v -3.2 C 96,112.179 95.8209,112 95.6,112 H 92.4 C 92.1791,112 92,111.821 92,111.6 V 104 h 3.6 c 0.2209,0 0.4,-0.179 0.4,-0.4 V 88 h 3.6 c 0.2209,0 0.4,-0.1791 0.4,-0.4 v -3.2 c 0,-0.2209 0.179,-0.4 0.4,-0.4 H 116 v 3.6 c 0,0.2209 -0.179,0.4 -0.4,0.4 h -7.2 c -0.221,0 -0.4,0.1791 -0.4,0.4 v 3.2 c 0,0.2209 -0.179,0.4 -0.4,0.4 h -7.2 c -0.221,0 -0.4,0.1791 -0.4,0.4 v 3.2 c 0,0.2209 0.179,0.4 0.4,0.4 h 11.2 c 0.221,0 0.4,-0.1791 0.4,-0.4 v -3.2 c 0,-0.2209 0.179,-0.4 0.4,-0.4 h 3.2 c 0.221,0 0.4,0.1791 0.4,0.4 v 7.2 c 0,0.2209 0.179,0.4 0.4,0.4 h 3.2 c 0.221,0 0.4,-0.1791 0.4,-0.4 v -3.2 c 0,-0.2209 0.179,-0.4 0.4,-0.4 h 3.2 c 0.221,0 0.4,-0.1791 0.4,-0.4 V 92 h 3.6 c 0.221,0 0.4,0.1791 0.4,0.4 v 3.2 c 0,0.2209 0.179,0.4 0.4,0.4 h 3.2 c 0.221,0 0.4,0.1791 0.4,0.4 v 7.2 c 0,0.221 -0.179,0.4 -0.4,0.4 h -7.2 c -0.221,0 -0.4,0.179 -0.4,0.4 v 3.6 h -7.6 c -0.221,0 -0.4,0.179 -0.4,0.4 v 7.6 h -3.6 c -0.221,0 -0.4,0.179 -0.4,0.4 v 3.2 c 0,0.221 0.179,0.4 0.4,0.4 h 3.2 c 0.221,0 0.4,-0.179 0.4,-0.4 V 116 h 3.6 c 0.221,0 0.4,-0.179 0.4,-0.4 v -3.2 c 0,-0.221 0.179,-0.4 0.4,-0.4 h 3.2 c 0.221,0 0.4,-0.179 0.4,-0.4 V 108 h 3.6 c 0.221,0 0.4,0.179 0.4,0.4 v 3.2 c 0,0.221 0.179,0.4 0.4,0.4 h 3.2 c 0.221,0 0.4,0.179 0.4,0.4 v 7.2 c 0,0.221 -0.179,0.4 -0.4,0.4 h -3.2 c -0.221,0 -0.4,0.179 -0.4,0.4 v 7.2 c 0,0.221 -0.179,0.4 -0.4,0.4 H 124 v -3.6 c 0,-0.221 -0.179,-0.4 -0.4,-0.4 h -3.2 c -0.221,0 -0.4,0.179 -0.4,0.4 v 3.6 h -3.6 c -0.221,0 -0.4,0.179 -0.4,0.4 v 3.2 c 0,0.221 -0.179,0.4 -0.4,0.4 z m -12,0 h -3.2 c -0.221,0 -0.4,-0.179 -0.4,-0.4 V 128 h 3.6 c 0.221,0 0.4,0.179 0.4,0.4 v 3.2 c 0,0.221 -0.179,0.4 -0.4,0.4 z m -8,0 H 92.4 C 92.1791,132 92,131.821 92,131.6 V 128 h 4 v 3.6 c 0,0.221 -0.1791,0.4 -0.4,0.4 z m -8,0 H 84.4 C 84.1791,132 84,131.821 84,131.6 V 128 h 4 v 3.6 c 0,0.221 -0.1791,0.4 -0.4,0.4 z m -12,0 H 72.4 C 72.1791,132 72,131.821 72,131.6 V 128 h 3.6 c 0.2209,0 0.4,0.179 0.4,0.4 v 3.2 c 0,0.221 -0.1791,0.4 -0.4,0.4 z m -20,0 h -7.2 c -0.2209,0 -0.4,-0.179 -0.4,-0.4 v -19.2 c 0,-0.221 0.1791,-0.4 0.4,-0.4 h 3.2 c 0.2209,0 0.4,0.179 0.4,0.4 v 15.2 c 0,0.221 0.1791,0.4 0.4,0.4 H 56 v 3.6 c 0,0.221 -0.1791,0.4 -0.4,0.4 z m -12,0 H 16.4 c -0.2209,0 -0.4,-0.179 -0.4,-0.4 v -27.2 c 0,-0.221 0.1791,-0.4 0.4,-0.4 h 27.2 c 0.2209,0 0.4,0.179 0.4,0.4 v 27.2 c 0,0.221 -0.1791,0.4 -0.4,0.4 z m 56,-4 H 96 v -4 h 4 v 4 z m -8,0 H 88 v -3.6 c 0,-0.221 0.1791,-0.4 0.4,-0.4 H 92 v 4 z m -32,0 H 56 v -3.6 c 0,-0.221 0.1791,-0.4 0.4,-0.4 h 3.2 c 0.2209,0 0.4,0.179 0.4,0.4 v 3.2 c 0,0.221 -0.1791,0.4 -0.4,0.4 z M 40,127.6 V 108.4 C 40,108.179 39.8209,108 39.6,108 H 20.4 c -0.2209,0 -0.4,0.179 -0.4,0.4 v 19.2 c 0,0.221 0.1791,0.4 0.4,0.4 h 19.2 c 0.2209,0 0.4,-0.179 0.4,-0.4 z M 35.6,124 H 24.4 c -0.2209,0 -0.4,-0.179 -0.4,-0.4 v -11.2 c 0,-0.221 0.1791,-0.4 0.4,-0.4 h 11.2 c 0.2209,0 0.4,0.179 0.4,0.4 v 11.2 c 0,0.221 -0.1791,0.4 -0.4,0.4 z m 44,-8 H 76 v -4 h 4 v 4 z m -16,0 h -7.2 c -0.2209,0 -0.4,-0.179 -0.4,-0.4 v -3.2 c 0,-0.221 0.1791,-0.4 0.4,-0.4 h 3.2 c 0.2209,0 0.4,-0.179 0.4,-0.4 V 104 h 7.6 c 0.2209,0 0.4,0.179 0.4,0.4 v 3.2 c 0,0.221 -0.1791,0.4 -0.4,0.4 h -3.2 c -0.2209,0 -0.4,0.179 -0.4,0.4 v 7.6 z m 48.4,-4.4 v -11.2 c 0,-0.221 -0.179,-0.4 -0.4,-0.4 h -11.2 c -0.221,0 -0.4,0.179 -0.4,0.4 v 11.2 c 0,0.221 0.179,0.4 0.4,0.4 h 11.2 c 0.221,0 0.4,-0.179 0.4,-0.4 z M 83.6,112 H 80 v -3.6 C 80,108.179 79.8209,108 79.6,108 H 76 v -3.6 c 0,-0.221 0.1791,-0.4 0.4,-0.4 H 84 v 8 z m -8,0 h -3.2 c -0.2209,0 -0.4,-0.179 -0.4,-0.4 v -3.2 c 0,-0.221 0.1791,-0.4 0.4,-0.4 H 76 v 4 z m 32,-4 h -3.2 c -0.221,0 -0.4,-0.179 -0.4,-0.4 v -3.2 c 0,-0.221 0.179,-0.4 0.4,-0.4 h 3.2 c 0.221,0 0.4,0.179 0.4,0.4 v 3.2 c 0,0.221 -0.179,0.4 -0.4,0.4 z m -52,0 H 48.4 C 48.1791,108 48,107.821 48,107.6 V 100 h 11.6 c 0.2209,0 0.4,0.179 0.4,0.4 v 3.6 h -3.6 c -0.2209,0 -0.4,0.179 -0.4,0.4 v 3.2 c 0,0.221 -0.1791,0.4 -0.4,0.4 z m 36,-4 H 84 v -8 h 3.6 C 87.8209,96 88,95.8209 88,95.6 V 92 h 3.6 c 0.2209,0 0.4,0.1791 0.4,0.4 V 104 Z m -16,-4 H 72.4 C 72.1791,100 72,99.8209 72,99.6 V 96 h 4 v 3.6 c 0,0.2209 -0.1791,0.4 -0.4,0.4 z m -8,0 H 64.4 C 64.1791,100 64,99.8209 64,99.6 V 92.4 C 64,92.1791 64.1791,92 64.4,92 h 3.2 C 67.8209,92 68,91.8209 68,91.6 V 88.4 C 68,88.1791 67.8209,88 67.6,88 H 64.4 C 64.1791,88 64,87.8209 64,87.6 V 84 h 7.6 c 0.2209,0 0.4,0.1791 0.4,0.4 v 3.2 c 0,0.2209 0.1791,0.4 0.4,0.4 h 7.2 C 79.8209,88 80,87.8209 80,87.6 V 84 h 3.6 C 83.8209,84 84,83.8209 84,83.6 V 80.4 C 84,80.1791 84.1791,80 84.4,80 h 3.2 c 0.2209,0 0.4,0.1791 0.4,0.4 v 3.2 c 0,0.2209 0.1791,0.4 0.4,0.4 h 3.2 C 91.8209,84 92,83.8209 92,83.6 V 76.4 C 92,76.1791 92.1791,76 92.4,76 h 7.2 c 0.2209,0 0.4,-0.1791 0.4,-0.4 V 72 h 4 v 3.6 c 0,0.2209 0.179,0.4 0.4,0.4 h 3.6 v 3.6 c 0,0.2209 -0.179,0.4 -0.4,0.4 H 96.4 C 96.1791,80 96,80.1791 96,80.4 V 88 H 88.4 C 88.1791,88 88,88.1791 88,88.4 V 92 H 84.4 C 84.1791,92 84,92.1791 84,92.4 V 96 H 76 V 92.4 C 76,92.1791 75.8209,92 75.6,92 H 72.4 C 72.1791,92 72,92.1791 72,92.4 V 96 H 68.4 C 68.1791,96 68,96.1791 68,96.4 v 3.2 c 0,0.2209 -0.1791,0.4 -0.4,0.4 z m -20,0 H 32.4 C 32.1791,100 32,99.8209 32,99.6 V 92 h 3.6 c 0.2209,0 0.4,0.1791 0.4,0.4 v 3.2 c 0,0.2209 0.1791,0.4 0.4,0.4 h 11.2 c 0.2209,0 0.4,0.1791 0.4,0.4 v 3.6 z m -28,0 H 16.4 C 16.1791,100 16,99.8209 16,99.6 V 84.4 C 16,84.1791 16.1791,84 16.4,84 h 3.2 C 19.8209,84 20,83.8209 20,83.6 V 80.4 C 20,80.1791 20.1791,80 20.4,80 H 24 v 3.6 c 0,0.2209 0.1791,0.4 0.4,0.4 H 28 v 4 H 20.4 C 20.1791,88 20,88.1791 20,88.4 v 11.2 c 0,0.2209 -0.1791,0.4 -0.4,0.4 z m 8,-4 H 24.4 C 24.1791,96 24,95.8209 24,95.6 V 92.4 C 24,92.1791 24.1791,92 24.4,92 H 28 v 3.6 c 0,0.2209 -0.1791,0.4 -0.4,0.4 z m 96,-4 h -3.2 C 120.179,92 120,91.8209 120,91.6 V 84.4 C 120,84.1791 119.821,84 119.6,84 H 116 v -4 h 8 v 12 z m -64,0 H 56.4 C 56.1791,92 56,91.8209 56,91.6 V 88.4 C 56,88.1791 56.1791,88 56.4,88 h 3.2 c 0.2209,0 0.4,0.1791 0.4,0.4 v 3.2 c 0,0.2209 -0.1791,0.4 -0.4,0.4 z m -12,0 H 40.4 C 40.1791,92 40,91.8209 40,91.6 V 88 h 3.6 C 43.8209,88 44,87.8209 44,87.6 V 84.4 C 44,84.1791 43.8209,84 43.6,84 H 40.4 C 40.1791,84 40,84.1791 40,84.4 V 88 H 32 V 84.4 C 32,84.1791 31.8209,84 31.6,84 H 28 V 80.4 C 28,80.1791 27.8209,80 27.6,80 H 24 V 52.4 C 24,52.1791 23.8209,52 23.6,52 H 20.4 C 20.1791,52 20,52.1791 20,52.4 V 63.6 C 20,63.8209 19.8209,64 19.6,64 H 16.4 C 16.1791,64 16,63.8209 16,63.6 V 48.4 C 16,48.1791 16.1791,48 16.4,48 h 19.2 c 0.2209,0 0.4,0.1791 0.4,0.4 V 56 H 28.4 C 28.1791,56 28,56.1791 28,56.4 v 3.2 c 0,0.2209 0.1791,0.4 0.4,0.4 h 3.2 c 0.2209,0 0.4,0.1791 0.4,0.4 V 64 H 28.4 C 28.1791,64 28,64.1791 28,64.4 v 7.2 c 0,0.2209 0.1791,0.4 0.4,0.4 h 3.2 C 31.8209,72 32,71.8209 32,71.6 V 64 H 43.6 C 43.8209,64 44,63.8209 44,63.6 V 60.4 C 44,60.1791 43.8209,60 43.6,60 H 36.4 C 36.1791,60 36,59.8209 36,59.6 V 56 h 7.6 C 43.8209,56 44,55.8209 44,55.6 V 52.4 C 44,52.1791 43.8209,52 43.6,52 H 40.4 C 40.1791,52 40,51.8209 40,51.6 V 48.4 C 40,48.1791 40.1791,48 40.4,48 H 51.6 C 51.8209,48 52,47.8209 52,47.6 V 44 h 3.6 C 55.8209,44 56,43.8209 56,43.6 V 40 h 4 v 3.6 c 0,0.2209 0.1791,0.4 0.4,0.4 H 64 v 8 H 60 V 48.4 C 60,48.1791 59.8209,48 59.6,48 H 56.4 C 56.1791,48 56,48.1791 56,48.4 V 52 H 52.4 C 52.1791,52 52,52.1791 52,52.4 v 3.2 C 52,55.8209 51.8209,56 51.6,56 H 48.4 C 48.1791,56 48,56.1791 48,56.4 v 7.2 c 0,0.2209 0.1791,0.4 0.4,0.4 h 11.2 c 0.2209,0 0.4,0.1791 0.4,0.4 v 3.2 C 60,67.8209 59.8209,68 59.6,68 H 52.4 C 52.1791,68 52,68.1791 52,68.4 v 3.2 C 52,71.8209 51.8209,72 51.6,72 H 48 V 68.4 C 48,68.1791 47.8209,68 47.6,68 H 36.4 C 36.1791,68 36,68.1791 36,68.4 v 3.2 c 0,0.2209 0.1791,0.4 0.4,0.4 H 48 v 3.6 c 0,0.2209 0.1791,0.4 0.4,0.4 H 56 v 3.6 C 56,79.8209 55.8209,80 55.6,80 H 48.4 C 48.1791,80 48,80.1791 48,80.4 v 11.2 c 0,0.2209 -0.1791,0.4 -0.4,0.4 z m -16,0 H 28 v -4 h 4 v 4 z m 100,-4 h -3.2 c -0.221,0 -0.4,-0.1791 -0.4,-0.4 v -3.2 c 0,-0.2209 0.179,-0.4 0.4,-0.4 h 3.2 c 0.221,0 0.4,0.1791 0.4,0.4 v 3.2 c 0,0.2209 -0.179,0.4 -0.4,0.4 z m -52,-4 H 76.4 C 76.1791,84 76,83.8209 76,83.6 V 80.4 C 76,80.1791 76.1791,80 76.4,80 h 3.2 c 0.2209,0 0.4,0.1791 0.4,0.4 V 84 Z m -16,0 H 60.4 C 60.1791,84 60,83.8209 60,83.6 V 76.4 C 60,76.1791 59.8209,76 59.6,76 H 56 V 72.4 C 56,72.1791 56.1791,72 56.4,72 H 72 v 3.6 C 72,75.8209 71.8209,76 71.6,76 H 64.4 C 64.1791,76 64,76.1791 64,76.4 V 84 Z m 64,-4 H 124 v -4 h 3.6 c 0.221,0 0.4,0.1791 0.4,0.4 v 3.2 c 0,0.2209 -0.179,0.4 -0.4,0.4 z m -12,0 h -3.2 C 112.179,80 112,79.8209 112,79.6 V 76 h 4 v 4 z M 44,79.6 V 76.4 C 44,76.1791 43.8209,76 43.6,76 H 36.4 C 36.1791,76 36,76.1791 36,76.4 v 3.2 c 0,0.2209 0.1791,0.4 0.4,0.4 h 7.2 C 43.8209,80 44,79.8209 44,79.6 Z M 123.6,76 H 116 v -4 h 7.6 c 0.221,0 0.4,0.1791 0.4,0.4 V 76 Z m -12,0 H 108 V 72.4 C 108,72.1791 107.821,72 107.6,72 H 104 v -3.6 c 0,-0.2209 0.179,-0.4 0.4,-0.4 H 116 v 4 h -3.6 c -0.221,0 -0.4,0.1791 -0.4,0.4 V 76 Z m -28,0 H 76.4 C 76.1791,76 76,75.8209 76,75.6 V 72 h 3.6 C 79.8209,72 80,71.8209 80,71.6 V 68 h 4 v 7.6 c 0,0.2209 -0.1791,0.4 -0.4,0.4 z m 48,-4 h -3.2 c -0.221,0 -0.4,-0.1791 -0.4,-0.4 v -3.2 c 0,-0.2209 0.179,-0.4 0.4,-0.4 h 3.2 c 0.221,0 0.4,0.1791 0.4,0.4 v 3.2 c 0,0.2209 -0.179,0.4 -0.4,0.4 z m -32,0 H 88.4 C 88.1791,72 88,71.8209 88,71.6 V 68 h 7.6 C 95.8209,68 96,67.8209 96,67.6 V 56.4 C 96,56.1791 95.8209,56 95.6,56 H 92 V 52.4 C 92,52.1791 92.1791,52 92.4,52 h 3.2 C 95.8209,52 96,51.8209 96,51.6 V 48 h 7.6 c 0.221,0 0.4,0.1791 0.4,0.4 v 3.2 c 0,0.2209 0.179,0.4 0.4,0.4 h 3.2 c 0.221,0 0.4,-0.1791 0.4,-0.4 v -3.2 c 0,-0.2209 0.179,-0.4 0.4,-0.4 h 3.2 c 0.221,0 0.4,0.1791 0.4,0.4 v 3.2 c 0,0.2209 0.179,0.4 0.4,0.4 h 3.6 v 8 h -3.6 c -0.221,0 -0.4,-0.1791 -0.4,-0.4 v -3.2 c 0,-0.2209 -0.179,-0.4 -0.4,-0.4 h -7.2 c -0.221,0 -0.4,0.1791 -0.4,0.4 v 3.2 c 0,0.2209 0.179,0.4 0.4,0.4 h 3.2 c 0.221,0 0.4,0.1791 0.4,0.4 v 3.2 c 0,0.2209 -0.179,0.4 -0.4,0.4 h -7.2 c -0.221,0 -0.4,0.1791 -0.4,0.4 V 72 Z m -24,0 H 72 V 68.4 C 72,68.1791 71.8209,68 71.6,68 H 64.4 C 64.1791,68 64,67.8209 64,67.6 V 60.4 C 64,60.1791 64.1791,60 64.4,60 h 3.2 c 0.2209,0 0.4,0.1791 0.4,0.4 v 3.2 c 0,0.2209 0.1791,0.4 0.4,0.4 h 3.2 C 71.8209,64 72,63.8209 72,63.6 V 60.4 C 72,60.1791 72.1791,60 72.4,60 h 3.2 C 75.8209,60 76,59.8209 76,59.6 V 56.4 C 76,56.1791 76.1791,56 76.4,56 h 3.2 C 79.8209,56 80,55.8209 80,55.6 V 52 h 4 v 3.6 c 0,0.2209 0.1791,0.4 0.4,0.4 H 92 v 3.6 C 92,59.8209 91.8209,60 91.6,60 H 80.4 C 80.1791,60 80,60.1791 80,60.4 V 68 H 76.4 C 76.1791,68 76,68.1791 76,68.4 V 72 Z m -56,0 H 16.4 C 16.1791,72 16,71.8209 16,71.6 V 68.4 C 16,68.1791 16.1791,68 16.4,68 h 3.2 c 0.2209,0 0.4,0.1791 0.4,0.4 v 3.2 c 0,0.2209 -0.1791,0.4 -0.4,0.4 z m 104,-4 H 116 v -8 h 3.6 c 0.221,0 0.4,0.1791 0.4,0.4 v 3.2 c 0,0.2209 0.179,0.4 0.4,0.4 h 3.6 v 3.6 c 0,0.2209 -0.179,0.4 -0.4,0.4 z m -36,0 H 84 V 64.4 C 84,64.1791 84.1791,64 84.4,64 h 3.2 c 0.2209,0 0.4,0.1791 0.4,0.4 V 68 Z m 40,-4 H 124 v -3.6 c 0,-0.2209 0.179,-0.4 0.4,-0.4 h 3.2 c 0.221,0 0.4,0.1791 0.4,0.4 v 3.2 c 0,0.2209 -0.179,0.4 -0.4,0.4 z m -68,-4 H 56.4 C 56.1791,60 56,59.8209 56,59.6 V 52 h 4 v 7.6 c 0,0.2209 -0.1791,0.4 -0.4,0.4 z m 72,-4 h -3.2 C 128.179,56 128,55.8209 128,55.6 V 52 h 3.6 c 0.221,0 0.4,0.1791 0.4,0.4 v 3.2 c 0,0.2209 -0.179,0.4 -0.4,0.4 z m -64,0 H 64.4 C 64.1791,56 64,55.8209 64,55.6 V 52 h 4 v 3.6 c 0,0.2209 -0.1791,0.4 -0.4,0.4 z m 60,-4 h -3.2 c -0.221,0 -0.4,-0.1791 -0.4,-0.4 v -3.2 c 0,-0.2209 0.179,-0.4 0.4,-0.4 h 3.2 c 0.221,0 0.4,0.1791 0.4,0.4 V 52 Z m -8,0 H 116 v -3.6 c 0,-0.2209 0.179,-0.4 0.4,-0.4 h 3.2 c 0.221,0 0.4,0.1791 0.4,0.4 v 3.2 c 0,0.2209 -0.179,0.4 -0.4,0.4 z m -32,0 H 84 V 48.4 C 84,48.1791 84.1791,48 84.4,48 h 3.2 c 0.2209,0 0.4,0.1791 0.4,0.4 v 3.2 c 0,0.2209 -0.1791,0.4 -0.4,0.4 z m -8,0 H 68 V 48.4 C 68,48.1791 68.1791,48 68.4,48 h 3.2 C 71.8209,48 72,47.8209 72,47.6 V 36 h 8 v 4 H 76.4 C 76.1791,40 76,40.1791 76,40.4 v 7.2 c 0,0.2209 0.1791,0.4 0.4,0.4 h 3.2 c 0.2209,0 0.4,0.1791 0.4,0.4 V 52 Z m 16,-4 H 92.4 C 92.1791,48 92,47.8209 92,47.6 V 44 h 4 v 4 z m 36,-4 H 104.4 C 104.179,44 104,43.8209 104,43.6 V 16.4 c 0,-0.2209 0.179,-0.4 0.4,-0.4 h 27.2 c 0.221,0 0.4,0.1791 0.4,0.4 v 27.2 c 0,0.2209 -0.179,0.4 -0.4,0.4 z m -32,0 H 96 v -8 h 3.6 c 0.2209,0 0.4,0.1791 0.4,0.4 v 7.2 c 0,0.2209 -0.1791,0.4 -0.4,0.4 z m -8,0 H 88.4 C 88.1791,44 88,43.8209 88,43.6 V 40.4 C 88,40.1791 87.8209,40 87.6,40 H 84 v -4 h 8 v 8 z m -8,0 H 80.4 C 80.1791,44 80,43.8209 80,43.6 V 40 h 4 v 3.6 c 0,0.2209 -0.1791,0.4 -0.4,0.4 z m -16,0 H 64 V 40.4 C 64,40.1791 63.8209,40 63.6,40 H 60 V 36.4 C 60,36.1791 60.1791,36 60.4,36 H 68 v 7.6 c 0,0.2209 -0.1791,0.4 -0.4,0.4 z m -16,0 H 48.4 C 48.1791,44 48,43.8209 48,43.6 V 36.4 C 48,36.1791 48.1791,36 48.4,36 h 3.2 C 51.8209,36 52,35.8209 52,35.6 V 32.4 C 52,32.1791 51.8209,32 51.6,32 H 48.4 C 48.1791,32 48,31.8209 48,31.6 V 28.4 C 48,28.1791 48.1791,28 48.4,28 h 11.2 c 0.2209,0 0.4,0.1791 0.4,0.4 v 3.2 C 60,31.8209 59.8209,32 59.6,32 H 56.4 C 56.1791,32 56,32.1791 56,32.4 V 40 H 52.4 C 52.1791,40 52,40.1791 52,40.4 V 44 Z m -8,0 H 16.4 C 16.1791,44 16,43.8209 16,43.6 V 16.4 C 16,16.1791 16.1791,16 16.4,16 h 27.2 c 0.2209,0 0.4,0.1791 0.4,0.4 V 43.6 C 44,43.8209 43.8209,44 43.6,44 Z M 128,39.6 V 20.4 c 0,-0.2209 -0.179,-0.4 -0.4,-0.4 h -19.2 c -0.221,0 -0.4,0.1791 -0.4,0.4 v 19.2 c 0,0.2209 0.179,0.4 0.4,0.4 h 19.2 c 0.221,0 0.4,-0.1791 0.4,-0.4 z m -88,0 V 20.4 C 40,20.1791 39.8209,20 39.6,20 H 20.4 C 20.1791,20 20,20.1791 20,20.4 v 19.2 c 0,0.2209 0.1791,0.4 0.4,0.4 H 39.6 C 39.8209,40 40,39.8209 40,39.6 Z M 123.6,36 H 112.4 C 112.179,36 112,35.8209 112,35.6 V 24.4 c 0,-0.2209 0.179,-0.4 0.4,-0.4 h 11.2 c 0.221,0 0.4,0.1791 0.4,0.4 v 11.2 c 0,0.2209 -0.179,0.4 -0.4,0.4 z m -28,0 H 92 V 24.4 C 92,24.1791 92.1791,24 92.4,24 h 3.2 C 95.8209,24 96,23.8209 96,23.6 V 20.4 C 96,20.1791 95.8209,20 95.6,20 H 88.4 C 88.1791,20 88,19.8209 88,19.6 V 16.4 C 88,16.1791 88.1791,16 88.4,16 h 11.2 c 0.2209,0 0.4,0.1791 0.4,0.4 v 11.2 c 0,0.2209 -0.1791,0.4 -0.4,0.4 H 96.4 C 96.1791,28 96,28.1791 96,28.4 V 36 Z m -12,0 H 80 V 32.4 C 80,32.1791 80.1791,32 80.4,32 H 84 v 4 z m -12,0 H 68 V 32.4 C 68,32.1791 67.8209,32 67.6,32 H 64.4 C 64.1791,32 64,31.8209 64,31.6 V 24.4 C 64,24.1791 64.1791,24 64.4,24 H 68 v 3.6 c 0,0.2209 0.1791,0.4 0.4,0.4 h 3.2 c 0.2209,0 0.4,0.1791 0.4,0.4 V 36 Z m -36,0 H 24.4 C 24.1791,36 24,35.8209 24,35.6 V 24.4 C 24,24.1791 24.1791,24 24.4,24 h 11.2 c 0.2209,0 0.4,0.1791 0.4,0.4 v 11.2 c 0,0.2209 -0.1791,0.4 -0.4,0.4 z m 52,-4 H 84 V 28.4 C 84,28.1791 84.1791,28 84.4,28 h 3.2 c 0.2209,0 0.4,0.1791 0.4,0.4 v 3.2 c 0,0.2209 -0.1791,0.4 -0.4,0.4 z m -8,-4 H 76.4 C 76.1791,28 76,27.8209 76,27.6 V 24.4 C 76,24.1791 75.8209,24 75.6,24 H 68 V 20.4 C 68,20.1791 67.8209,20 67.6,20 H 64.4 C 64.1791,20 64,19.8209 64,19.6 V 16.4 C 64,16.1791 64.1791,16 64.4,16 h 7.2 c 0.2209,0 0.4,0.1791 0.4,0.4 v 3.2 c 0,0.2209 0.1791,0.4 0.4,0.4 h 7.2 C 79.8209,20 80,19.8209 80,19.6 V 16.4 C 80,16.1791 80.1791,16 80.4,16 h 3.2 c 0.2209,0 0.4,0.1791 0.4,0.4 v 7.2 C 84,23.8209 83.8209,24 83.6,24 H 80.4 C 80.1791,24 80,24.1791 80,24.4 v 3.2 c 0,0.2209 -0.1791,0.4 -0.4,0.4 z m -20,-4 H 56.4 C 56.1791,24 56,23.8209 56,23.6 V 16.4 C 56,16.1791 56.1791,16 56.4,16 h 3.2 c 0.2209,0 0.4,0.1791 0.4,0.4 v 7.2 c 0,0.2209 -0.1791,0.4 -0.4,0.4 z m -8,0 H 48.4 C 48.1791,24 48,23.8209 48,23.6 V 20.4 C 48,20.1791 48.1791,20 48.4,20 h 3.2 c 0.2209,0 0.4,0.1791 0.4,0.4 v 3.2 c 0,0.2209 -0.1791,0.4 -0.4,0.4 z"
             id="path23" />
        </g>
      </g>
    </g>
  </g>
</svg>
