<?xml version="1.0" encoding="UTF-8" standalone="no"?>
<!-- Created with Inkscape (http://www.inkscape.org/) -->

<svg
   width="45mm"
   height="50mm"
   viewBox="0 0 45 50"
   version="1.1"
   id="svg1"
   inkscape:version="1.3.2 (091e20ef0f, 2023-11-25)"
   sodipodi:docname="essen-log-cabin-3d-qr.svg"
   xmlns:inkscape="http://www.inkscape.org/namespaces/inkscape"
   xmlns:sodipodi="http://sodipodi.sourceforge.net/DTD/sodipodi-0.dtd"
   xmlns="http://www.w3.org/2000/svg"
   xmlns:svg="http://www.w3.org/2000/svg">
  <sodipodi:namedview
     id="namedview1"
     pagecolor="#ffffff"
     bordercolor="#000000"
     borderopacity="0.25"
     inkscape:showpageshadow="2"
     inkscape:pageopacity="0.0"
     inkscape:pagecheckerboard="0"
     inkscape:deskcolor="#d1d1d1"
     inkscape:document-units="mm"
     inkscape:zoom="0.74029882"
     inkscape:cx="43.225788"
     inkscape:cy="430.23167"
     inkscape:window-width="960"
     inkscape:window-height="1011"
     inkscape:window-x="960"
     inkscape:window-y="32"
     inkscape:window-maximized="0"
     inkscape:current-layer="layer1" />
  <defs
     id="defs1" />
  <g
     inkscape:label="Layer 1"
     inkscape:groupmode="layer"
     id="layer1"
     transform="translate(-125.14791,-15.08125)">
    <g
       id="g5"
       transform="translate(62.850145,-208.46714)">
      <text
         xml:space="preserve"
         style="font-style:normal;font-variant:normal;font-weight:normal;font-stretch:normal;font-size:6.35px;font-family:Helvetica;-inkscape-font-specification:Helvetica;fill:#000000;stroke:none;stroke-width:7.99999"
         x="80.778206"
         y="270.99652"
         id="text6"><tspan
           sodipodi:role="line"
           id="tspan6"
           style="font-weight:bold;font-size:6.35px;fill:#000000;stroke-width:8"
           x="80.778206"
           y="270.99652">3D</tspan><tspan
           sodipodi:role="line"
           style="font-size:6.35px;fill:#000000;stroke-width:8"
           x="80.778206"
           y="278.93402"
           id="tspan7" /><tspan
           sodipodi:role="line"
           style="font-size:6.35px;fill:#000000;stroke-width:8"
           x="80.778206"
           y="286.87152"
           id="tspan8" /></text>
      <g
         inkscape:label="QR Code: https://archbridge.us/essen-log-cabin-3d"
         transform="matrix(0.264583,0,0,0.264583,65.218623,226.0431)"
         id="g14">
        <rect
           x="0"
           y="0"
           width="148"
           height="148"
           style="fill:#ffffff;stroke:none"
           id="rect13" />
        <g
           style="fill:#000000;stroke:none"
           id="g13">
          <path
             d="m 123.6,132 h -3.2 c -0.221,0 -0.4,-0.179 -0.4,-0.4 v -3.2 c 0,-0.221 -0.179,-0.4 -0.4,-0.4 h -3.2 c -0.221,0 -0.4,0.179 -0.4,0.4 v 3.2 c 0,0.221 -0.179,0.4 -0.4,0.4 h -3.2 c -0.221,0 -0.4,-0.179 -0.4,-0.4 v -3.2 c 0,-0.221 -0.179,-0.4 -0.4,-0.4 h -7.2 c -0.221,0 -0.4,0.179 -0.4,0.4 v 3.2 c 0,0.221 -0.179,0.4 -0.4,0.4 h -3.2 c -0.221,0 -0.4,-0.179 -0.4,-0.4 v -11.2 c 0,-0.221 -0.1791,-0.4 -0.4,-0.4 h -3.2 c -0.2209,0 -0.4,0.179 -0.4,0.4 v 3.2 c 0,0.221 -0.1791,0.4 -0.4,0.4 H 92 v -3.6 c 0,-0.221 -0.1791,-0.4 -0.4,-0.4 h -7.2 c -0.2209,0 -0.4,0.179 -0.4,0.4 v 3.2 c 0,0.221 -0.1791,0.4 -0.4,0.4 h -3.2 c -0.2209,0 -0.4,0.179 -0.4,0.4 v 3.2 c 0,0.221 -0.1791,0.4 -0.4,0.4 h -3.2 c -0.2209,0 -0.4,0.179 -0.4,0.4 v 3.2 c 0,0.221 -0.1791,0.4 -0.4,0.4 h -3.2 c -0.2209,0 -0.4,-0.179 -0.4,-0.4 v -3.2 c 0,-0.221 -0.1791,-0.4 -0.4,-0.4 h -3.2 c -0.2209,0 -0.4,0.179 -0.4,0.4 v 3.2 c 0,0.221 -0.1791,0.4 -0.4,0.4 h -3.2 c -0.2209,0 -0.4,-0.179 -0.4,-0.4 v -7.2 c 0,-0.221 0.1791,-0.4 0.4,-0.4 h 3.2 c 0.2209,0 0.4,-0.179 0.4,-0.4 v -3.2 c 0,-0.221 -0.1791,-0.4 -0.4,-0.4 h -3.2 c -0.2209,0 -0.4,-0.179 -0.4,-0.4 v -3.2 c 0,-0.221 0.1791,-0.4 0.4,-0.4 h 3.2 c 0.2209,0 0.4,-0.179 0.4,-0.4 v -3.2 c 0,-0.221 0.1791,-0.4 0.4,-0.4 h 3.2 c 0.2209,0 0.4,-0.179 0.4,-0.4 v -3.2 c 0,-0.221 0.1791,-0.4 0.4,-0.4 h 3.2 c 0.2209,0 0.4,-0.179 0.4,-0.4 v -3.2 C 76,104.179 75.8209,104 75.6,104 H 72.4 C 72.1791,104 72,103.821 72,103.6 V 96 h 3.6 c 0.2209,0 0.4,0.1791 0.4,0.4 v 3.2 c 0,0.2209 0.1791,0.4 0.4,0.4 h 7.2 c 0.2209,0 0.4,-0.1791 0.4,-0.4 V 96 h 3.6 C 87.8209,96 88,95.8209 88,95.6 V 92.4 C 88,92.1791 88.1791,92 88.4,92 H 92 v 12 h -7.6 c -0.2209,0 -0.4,0.179 -0.4,0.4 v 11.2 c 0,0.221 0.1791,0.4 0.4,0.4 h 7.2 c 0.2209,0 0.4,-0.179 0.4,-0.4 V 104 h 3.6 c 0.2209,0 0.4,-0.179 0.4,-0.4 V 92 h 3.6 c 0.2209,0 0.4,-0.1791 0.4,-0.4 v -3.2 c 0,-0.2209 0.179,-0.4 0.4,-0.4 h 3.6 v 7.6 c 0,0.2209 0.179,0.4 0.4,0.4 h 7.2 c 0.221,0 0.4,-0.1791 0.4,-0.4 V 92 h 4 v 7.6 c 0,0.2209 0.179,0.4 0.4,0.4 h 3.6 v 3.6 c 0,0.221 0.179,0.4 0.4,0.4 h 3.2 c 0.221,0 0.4,0.179 0.4,0.4 v 3.2 c 0,0.221 -0.179,0.4 -0.4,0.4 h -7.2 c -0.221,0 -0.4,0.179 -0.4,0.4 v 3.2 c 0,0.221 0.179,0.4 0.4,0.4 h 3.2 c 0.221,0 0.4,0.179 0.4,0.4 v 3.2 c 0,0.221 0.179,0.4 0.4,0.4 h 3.6 v 3.6 c 0,0.221 0.179,0.4 0.4,0.4 h 3.6 v 4 h -3.6 c -0.221,0 -0.4,0.179 -0.4,0.4 v 7.2 c 0,0.221 -0.179,0.4 -0.4,0.4 z m -28,0 H 92.4 C 92.1791,132 92,131.821 92,131.6 V 128 h 3.6 c 0.2209,0 0.4,0.179 0.4,0.4 v 3.2 c 0,0.221 -0.1791,0.4 -0.4,0.4 z m -8,0 h -3.2 c -0.2209,0 -0.4,-0.179 -0.4,-0.4 v -3.2 c 0,-0.221 0.1791,-0.4 0.4,-0.4 H 88 v 3.6 c 0,0.221 -0.1791,0.4 -0.4,0.4 z m -28,0 H 48.4 c -0.2209,0 -0.4,-0.179 -0.4,-0.4 v -7.2 c 0,-0.221 0.1791,-0.4 0.4,-0.4 h 3.2 c 0.2209,0 0.4,0.179 0.4,0.4 v 3.2 c 0,0.221 0.1791,0.4 0.4,0.4 h 3.2 c 0.2209,0 0.4,-0.179 0.4,-0.4 v -3.2 c 0,-0.221 0.1791,-0.4 0.4,-0.4 h 3.2 c 0.2209,0 0.4,0.179 0.4,0.4 v 7.2 c 0,0.221 -0.1791,0.4 -0.4,0.4 z m -16,0 H 16.4 c -0.2209,0 -0.4,-0.179 -0.4,-0.4 v -27.2 c 0,-0.221 0.1791,-0.4 0.4,-0.4 h 27.2 c 0.2209,0 0.4,0.179 0.4,0.4 v 27.2 c 0,0.221 -0.1791,0.4 -0.4,0.4 z m 88,-4 h -3.2 c -0.221,0 -0.4,-0.179 -0.4,-0.4 V 124 h 3.6 c 0.221,0 0.4,0.179 0.4,0.4 v 3.2 c 0,0.221 -0.179,0.4 -0.4,0.4 z m -40,0 H 88 v -3.6 c 0,-0.221 0.1791,-0.4 0.4,-0.4 H 92 v 4 z M 40,127.6 V 108.4 C 40,108.179 39.8209,108 39.6,108 H 20.4 c -0.2209,0 -0.4,0.179 -0.4,0.4 v 19.2 c 0,0.221 0.1791,0.4 0.4,0.4 h 19.2 c 0.2209,0 0.4,-0.179 0.4,-0.4 z M 35.6,124 H 24.4 c -0.2209,0 -0.4,-0.179 -0.4,-0.4 v -11.2 c 0,-0.221 0.1791,-0.4 0.4,-0.4 h 11.2 c 0.2209,0 0.4,0.179 0.4,0.4 v 11.2 c 0,0.221 -0.1791,0.4 -0.4,0.4 z m 96,-4 H 128 v -4 h 3.6 c 0.221,0 0.4,0.179 0.4,0.4 v 3.2 c 0,0.221 -0.179,0.4 -0.4,0.4 z M 116,119.6 v -3.2 c 0,-0.221 -0.179,-0.4 -0.4,-0.4 h -3.2 c -0.221,0 -0.4,0.179 -0.4,0.4 v 3.2 c 0,0.221 0.179,0.4 0.4,0.4 h 3.2 c 0.221,0 0.4,-0.179 0.4,-0.4 z m -8,0 v -3.2 c 0,-0.221 -0.179,-0.4 -0.4,-0.4 h -3.2 c -0.221,0 -0.4,0.179 -0.4,0.4 v 3.2 c 0,0.221 0.179,0.4 0.4,0.4 h 3.2 c 0.221,0 0.4,-0.179 0.4,-0.4 z M 55.6,120 h -3.2 c -0.2209,0 -0.4,-0.179 -0.4,-0.4 v -7.2 C 52,112.179 51.8209,112 51.6,112 H 48.4 C 48.1791,112 48,111.821 48,111.6 V 96 h 3.6 c 0.2209,0 0.4,0.1791 0.4,0.4 v 3.2 c 0,0.2209 0.1791,0.4 0.4,0.4 h 3.2 c 0.2209,0 0.4,0.179 0.4,0.4 v 3.2 c 0,0.221 -0.1791,0.4 -0.4,0.4 h -3.2 c -0.2209,0 -0.4,0.179 -0.4,0.4 v 3.2 c 0,0.221 0.1791,0.4 0.4,0.4 h 3.2 c 0.2209,0 0.4,0.179 0.4,0.4 v 11.2 c 0,0.221 -0.1791,0.4 -0.4,0.4 z m 72,-4 H 124 v -3.6 c 0,-0.221 0.179,-0.4 0.4,-0.4 h 3.2 c 0.221,0 0.4,0.179 0.4,0.4 V 116 Z M 112,111.6 v -11.2 c 0,-0.221 -0.179,-0.4 -0.4,-0.4 h -11.2 c -0.221,0 -0.4,0.179 -0.4,0.4 v 11.2 c 0,0.221 0.179,0.4 0.4,0.4 h 11.2 c 0.221,0 0.4,-0.179 0.4,-0.4 z M 63.6,112 h -3.2 c -0.2209,0 -0.4,-0.179 -0.4,-0.4 v -7.2 c 0,-0.221 0.1791,-0.4 0.4,-0.4 h 7.2 c 0.2209,0 0.4,0.179 0.4,0.4 v 3.2 c 0,0.221 -0.1791,0.4 -0.4,0.4 h -3.2 c -0.2209,0 -0.4,0.179 -0.4,0.4 v 3.2 c 0,0.221 -0.1791,0.4 -0.4,0.4 z m 44,-4 h -3.2 c -0.221,0 -0.4,-0.179 -0.4,-0.4 v -3.2 c 0,-0.221 0.179,-0.4 0.4,-0.4 h 3.2 c 0.221,0 0.4,0.179 0.4,0.4 v 3.2 c 0,0.221 -0.179,0.4 -0.4,0.4 z m 24,-8 H 120 v -3.6 c 0,-0.2209 0.179,-0.4 0.4,-0.4 h 11.2 c 0.221,0 0.4,0.1791 0.4,0.4 v 3.2 c 0,0.2209 -0.179,0.4 -0.4,0.4 z m -64,0 H 64.4 C 64.1791,100 64,99.8209 64,99.6 V 92 h 7.6 c 0.2209,0 0.4,0.1791 0.4,0.4 V 96 H 68.4 C 68.1791,96 68,96.1791 68,96.4 v 3.2 c 0,0.2209 -0.1791,0.4 -0.4,0.4 z m -24,0 H 36.4 C 36.1791,100 36,99.8209 36,99.6 V 92.4 C 36,92.1791 36.1791,92 36.4,92 H 40 v 3.6 c 0,0.2209 0.1791,0.4 0.4,0.4 H 44 v 3.6 c 0,0.2209 -0.1791,0.4 -0.4,0.4 z m -12,0 H 28.4 C 28.1791,100 28,99.8209 28,99.6 V 96.4 C 28,96.1791 28.1791,96 28.4,96 h 3.2 c 0.2209,0 0.4,0.1791 0.4,0.4 v 3.2 c 0,0.2209 -0.1791,0.4 -0.4,0.4 z m -12,0 H 16.4 C 16.1791,100 16,99.8209 16,99.6 V 84.4 C 16,84.1791 16.1791,84 16.4,84 H 20 v 3.6 c 0,0.2209 0.1791,0.4 0.4,0.4 H 24 v 3.6 C 24,91.8209 23.8209,92 23.6,92 H 20.4 C 20.1791,92 20,92.1791 20,92.4 v 7.2 c 0,0.2209 -0.1791,0.4 -0.4,0.4 z m 64,-4 H 80.4 C 80.1791,96 80,95.8209 80,95.6 V 92 h 3.6 c 0.2209,0 0.4,0.1791 0.4,0.4 V 96 Z m -24,0 H 56.4 C 56.1791,96 56,95.8209 56,95.6 V 84.4 C 56,84.1791 55.8209,84 55.6,84 H 52.4 C 52.1791,84 52,83.8209 52,83.6 V 72.4 C 52,72.1791 51.8209,72 51.6,72 H 48.4 C 48.1791,72 48,71.8209 48,71.6 V 68.4 C 48,68.1791 48.1791,68 48.4,68 h 3.2 C 51.8209,68 52,67.8209 52,67.6 V 60 h 4 v 15.6 c 0,0.2209 0.1791,0.4 0.4,0.4 h 3.2 C 59.8209,76 60,75.8209 60,75.6 V 72.4 C 60,72.1791 60.1791,72 60.4,72 h 7.2 c 0.2209,0 0.4,0.1791 0.4,0.4 v 3.2 C 68,75.8209 67.8209,76 67.6,76 H 64.4 C 64.1791,76 64,76.1791 64,76.4 V 84 H 60.4 C 60.1791,84 60,84.1791 60,84.4 v 3.2 c 0,0.2209 0.1791,0.4 0.4,0.4 H 64 v 4 H 60.4 C 60.1791,92 60,92.1791 60,92.4 v 3.2 c 0,0.2209 -0.1791,0.4 -0.4,0.4 z m -12,0 H 44 v -4 h 3.6 c 0.2209,0 0.4,0.1791 0.4,0.4 V 96 Z m 84,-4 h -3.2 C 128.179,92 128,91.8209 128,91.6 V 88.4 C 128,88.1791 127.821,88 127.6,88 H 120 V 84.4 C 120,84.1791 119.821,84 119.6,84 H 116 v -4 h 3.6 c 0.221,0 0.4,-0.1791 0.4,-0.4 V 76.4 C 120,76.1791 119.821,76 119.6,76 H 116 v -4 h 8 v 11.6 c 0,0.2209 0.179,0.4 0.4,0.4 h 7.2 c 0.221,0 0.4,0.1791 0.4,0.4 v 7.2 c 0,0.2209 -0.179,0.4 -0.4,0.4 z m -12,0 H 116 v -4 h 4 v 3.6 c 0,0.2209 -0.179,0.4 -0.4,0.4 z m -8,0 h -3.2 C 108.179,92 108,91.8209 108,91.6 V 88.4 C 108,88.1791 107.821,88 107.6,88 H 104 v -3.6 c 0,-0.2209 0.179,-0.4 0.4,-0.4 H 116 v 4 h -3.6 c -0.221,0 -0.4,0.1791 -0.4,0.4 V 92 Z m -16,0 H 92 V 88.4 C 92,88.1791 91.8209,88 91.6,88 H 80.4 C 80.1791,88 80,88.1791 80,88.4 V 92 H 76.4 C 76.1791,92 76,91.8209 76,91.6 V 80.4 C 76,80.1791 75.8209,80 75.6,80 H 72.4 C 72.1791,80 72,79.8209 72,79.6 V 72.4 C 72,72.1791 72.1791,72 72.4,72 h 3.2 C 75.8209,72 76,71.8209 76,71.6 V 64 h 7.6 c 0.2209,0 0.4,0.1791 0.4,0.4 V 80 H 80.4 C 80.1791,80 80,80.1791 80,80.4 v 3.2 c 0,0.2209 0.1791,0.4 0.4,0.4 h 3.2 C 83.8209,84 84,83.8209 84,83.6 V 80 h 3.6 c 0.2209,0 0.4,0.1791 0.4,0.4 v 3.2 c 0,0.2209 0.1791,0.4 0.4,0.4 h 3.2 C 91.8209,84 92,83.8209 92,83.6 V 76.4 C 92,76.1791 92.1791,76 92.4,76 h 3.2 c 0.2209,0 0.4,0.1791 0.4,0.4 V 92 Z m -52,0 H 40 V 88.4 C 40,88.1791 40.1791,88 40.4,88 h 3.2 c 0.2209,0 0.4,0.1791 0.4,0.4 V 92 Z m 28,-4 H 64 v -4 h 7.6 c 0.2209,0 0.4,0.1791 0.4,0.4 v 3.2 c 0,0.2209 -0.1791,0.4 -0.4,0.4 z m -40,0 H 24 v -4 h 3.6 C 27.8209,84 28,83.8209 28,83.6 V 80 h 4 v 7.6 c 0,0.2209 -0.1791,0.4 -0.4,0.4 z m 16,-4 H 40.4 C 40.1791,84 40,83.8209 40,83.6 V 80.4 C 40,80.1791 40.1791,80 40.4,80 h 7.2 c 0.2209,0 0.4,0.1791 0.4,0.4 v 3.2 c 0,0.2209 -0.1791,0.4 -0.4,0.4 z m -24,0 H 20 V 80.4 C 20,80.1791 19.8209,80 19.6,80 H 16.4 C 16.1791,80 16,79.8209 16,79.6 V 76.4 C 16,76.1791 16.1791,76 16.4,76 H 28 v 4 H 24.4 C 24.1791,80 24,80.1791 24,80.4 V 84 Z m 108,-4 h -3.2 c -0.221,0 -0.4,-0.1791 -0.4,-0.4 v -3.2 c 0,-0.2209 0.179,-0.4 0.4,-0.4 h 3.2 c 0.221,0 0.4,0.1791 0.4,0.4 v 3.2 c 0,0.2209 -0.179,0.4 -0.4,0.4 z m -16,0 h -3.2 C 112.179,80 112,79.8209 112,79.6 V 76 h 4 v 4 z m -80,0 H 32 v -4 h 3.6 c 0.2209,0 0.4,0.1791 0.4,0.4 v 3.2 c 0,0.2209 -0.1791,0.4 -0.4,0.4 z m 76,-4 h -3.2 c -0.221,0 -0.4,-0.1791 -0.4,-0.4 v -3.2 c 0,-0.2209 -0.179,-0.4 -0.4,-0.4 h -3.2 c -0.221,0 -0.4,0.1791 -0.4,0.4 v 3.2 c 0,0.2209 -0.179,0.4 -0.4,0.4 h -3.2 C 100.179,76 100,75.8209 100,75.6 V 72.4 C 100,72.1791 99.8209,72 99.6,72 H 88.4 C 88.1791,72 88,71.8209 88,71.6 V 68.4 C 88,68.1791 88.1791,68 88.4,68 h 3.2 C 91.8209,68 92,67.8209 92,67.6 V 64.4 C 92,64.1791 92.1791,64 92.4,64 H 96 v 3.6 c 0,0.2209 0.1791,0.4 0.4,0.4 h 7.2 c 0.221,0 0.4,-0.1791 0.4,-0.4 V 60 h 3.6 c 0.221,0 0.4,0.1791 0.4,0.4 v 3.2 c 0,0.2209 0.179,0.4 0.4,0.4 h 3.2 c 0.221,0 0.4,0.1791 0.4,0.4 v 3.2 c 0,0.2209 0.179,0.4 0.4,0.4 h 3.2 c 0.221,0 0.4,0.1791 0.4,0.4 V 72 h -3.6 c -0.221,0 -0.4,0.1791 -0.4,0.4 V 76 Z m -68,0 H 40.4 C 40.1791,76 40,75.8209 40,75.6 V 72.4 C 40,72.1791 40.1791,72 40.4,72 h 3.2 c 0.2209,0 0.4,0.1791 0.4,0.4 v 3.2 c 0,0.2209 -0.1791,0.4 -0.4,0.4 z m -12,0 H 28 V 72.4 C 28,72.1791 28.1791,72 28.4,72 H 32 v 4 z m 100,-4 H 124 v -3.6 c 0,-0.2209 0.179,-0.4 0.4,-0.4 h 3.2 c 0.221,0 0.4,-0.1791 0.4,-0.4 v -3.2 c 0,-0.2209 0.179,-0.4 0.4,-0.4 h 3.2 c 0.221,0 0.4,0.1791 0.4,0.4 v 7.2 c 0,0.2209 -0.179,0.4 -0.4,0.4 z m -96,0 H 32 V 68.4 C 32,68.1791 31.8209,68 31.6,68 H 28.4 C 28.1791,68 28,67.8209 28,67.6 V 64.4 C 28,64.1791 27.8209,64 27.6,64 H 24 V 56.4 C 24,56.1791 23.8209,56 23.6,56 H 20 V 52.4 C 20,52.1791 19.8209,52 19.6,52 H 16.4 C 16.1791,52 16,51.8209 16,51.6 V 48.4 C 16,48.1791 16.1791,48 16.4,48 h 7.2 c 0.2209,0 0.4,0.1791 0.4,0.4 v 3.2 c 0,0.2209 0.1791,0.4 0.4,0.4 h 3.2 c 0.2209,0 0.4,0.1791 0.4,0.4 v 3.2 c 0,0.2209 0.1791,0.4 0.4,0.4 H 32 v 7.6 c 0,0.2209 0.1791,0.4 0.4,0.4 H 44 v 3.6 C 44,67.8209 43.8209,68 43.6,68 H 36.4 C 36.1791,68 36,68.1791 36,68.4 v 3.2 c 0,0.2209 -0.1791,0.4 -0.4,0.4 z m -12,0 H 16.4 C 16.1791,72 16,71.8209 16,71.6 V 68.4 C 16,68.1791 16.1791,68 16.4,68 h 3.2 C 19.8209,68 20,67.8209 20,67.6 V 64.4 C 20,64.1791 20.1791,64 20.4,64 H 24 v 7.6 c 0,0.2209 -0.1791,0.4 -0.4,0.4 z m 44,-4 H 60.4 C 60.1791,68 60,67.8209 60,67.6 V 64.4 C 60,64.1791 60.1791,64 60.4,64 h 3.2 C 63.8209,64 64,63.8209 64,63.6 V 60.4 C 64,60.1791 64.1791,60 64.4,60 H 68 v 7.6 c 0,0.2209 -0.1791,0.4 -0.4,0.4 z m 52,-4 h -3.2 C 116.179,64 116,63.8209 116,63.6 V 60 h 3.6 c 0.221,0 0.4,0.1791 0.4,0.4 v 3.2 c 0,0.2209 -0.179,0.4 -0.4,0.4 z m -20,0 H 96 v -8 h 7.6 c 0.221,0 0.4,0.1791 0.4,0.4 V 60 h -3.6 c -0.221,0 -0.4,0.1791 -0.4,0.4 v 3.2 c 0,0.2209 -0.1791,0.4 -0.4,0.4 z m -24,0 H 72.4 C 72.1791,64 72,63.8209 72,63.6 V 60 h 4 v 4 z m -28,0 H 44 V 60.4 C 44,60.1791 43.8209,60 43.6,60 H 40.4 C 40.1791,60 40,59.8209 40,59.6 V 56.4 C 40,56.1791 40.1791,56 40.4,56 h 3.2 C 43.8209,56 44,55.8209 44,55.6 V 52.4 C 44,52.1791 43.8209,52 43.6,52 H 36 V 48.4 C 36,48.1791 36.1791,48 36.4,48 h 11.2 c 0.2209,0 0.4,0.1791 0.4,0.4 v 7.2 c 0,0.2209 0.1791,0.4 0.4,0.4 H 52 v 4 H 48.4 C 48.1791,60 48,60.1791 48,60.4 v 3.2 c 0,0.2209 -0.1791,0.4 -0.4,0.4 z m 68,-4 h -3.2 c -0.221,0 -0.4,-0.1791 -0.4,-0.4 v -3.2 c 0,-0.2209 -0.179,-0.4 -0.4,-0.4 h -3.2 c -0.221,0 -0.4,-0.1791 -0.4,-0.4 v -3.2 c 0,-0.2209 0.179,-0.4 0.4,-0.4 h 3.2 c 0.221,0 0.4,-0.1791 0.4,-0.4 v -3.2 c 0,-0.2209 0.179,-0.4 0.4,-0.4 h 7.2 c 0.221,0 0.4,0.1791 0.4,0.4 V 52 h -3.6 c -0.221,0 -0.4,0.1791 -0.4,0.4 V 60 Z m -24,0 H 76 V 48.4 C 76,48.1791 75.8209,48 75.6,48 H 72 V 36 h 3.6 c 0.2209,0 0.4,0.1791 0.4,0.4 v 7.2 c 0,0.2209 0.1791,0.4 0.4,0.4 H 80 v 11.6 c 0,0.2209 0.1791,0.4 0.4,0.4 H 92 v 3.6 c 0,0.2209 -0.1791,0.4 -0.4,0.4 z m -20,0 H 68 v -4 h 3.6 c 0.2209,0 0.4,0.1791 0.4,0.4 V 60 Z m -12,0 H 56 v -4 h 3.6 c 0.2209,0 0.4,0.1791 0.4,0.4 v 3.2 c 0,0.2209 -0.1791,0.4 -0.4,0.4 z m -40,0 H 16.4 C 16.1791,60 16,59.8209 16,59.6 V 56.4 C 16,56.1791 16.1791,56 16.4,56 H 20 v 3.6 c 0,0.2209 -0.1791,0.4 -0.4,0.4 z m 108,-4 h -7.2 C 120.179,56 120,55.8209 120,55.6 V 52 h 7.6 c 0.221,0 0.4,0.1791 0.4,0.4 v 3.2 c 0,0.2209 -0.179,0.4 -0.4,0.4 z m -32,0 H 92 V 52.4 C 92,52.1791 92.1791,52 92.4,52 H 96 v 4 z m -28,0 H 64.4 C 64.1791,56 64,55.8209 64,55.6 V 52 h 4 v 4 z m -12,0 H 52 V 48.4 C 52,48.1791 52.1791,48 52.4,48 H 56 v 8 z m -20,0 H 32 V 52.4 C 32,52.1791 32.1791,52 32.4,52 H 36 v 3.6 c 0,0.2209 -0.1791,0.4 -0.4,0.4 z m 64,-4 H 96 v -4 h 3.6 c 0.2209,0 0.4,0.1791 0.4,0.4 v 3.2 c 0,0.2209 -0.1791,0.4 -0.4,0.4 z m -12,0 H 84.4 C 84.1791,52 84,51.8209 84,51.6 V 48.4 C 84,48.1791 84.1791,48 84.4,48 h 3.2 c 0.2209,0 0.4,0.1791 0.4,0.4 v 3.2 c 0,0.2209 -0.1791,0.4 -0.4,0.4 z m -16,0 H 68 V 48.4 C 68,48.1791 68.1791,48 68.4,48 H 72 v 3.6 c 0,0.2209 -0.1791,0.4 -0.4,0.4 z m -8,0 H 60.4 C 60.1791,52 60,51.8209 60,51.6 V 48.4 C 60,48.1791 59.8209,48 59.6,48 H 56 V 40.4 C 56,40.1791 56.1791,40 56.4,40 H 60 v 3.6 c 0,0.2209 0.1791,0.4 0.4,0.4 H 64 v 8 z m 32,-4 H 92.4 C 92.1791,48 92,47.8209 92,47.6 V 44 h 4 v 4 z m 36,-4 H 104.4 C 104.179,44 104,43.8209 104,43.6 V 16.4 c 0,-0.2209 0.179,-0.4 0.4,-0.4 h 27.2 c 0.221,0 0.4,0.1791 0.4,0.4 v 27.2 c 0,0.2209 -0.179,0.4 -0.4,0.4 z m -32,0 H 96 v -8 h 3.6 c 0.2209,0 0.4,0.1791 0.4,0.4 v 7.2 c 0,0.2209 -0.1791,0.4 -0.4,0.4 z m -8,0 H 88.4 C 88.1791,44 88,43.8209 88,43.6 V 40.4 C 88,40.1791 87.8209,40 87.6,40 H 84 v -4 h 8 v 8 z m -8,0 H 80 V 40.4 C 80,40.1791 80.1791,40 80.4,40 H 84 v 3.6 c 0,0.2209 -0.1791,0.4 -0.4,0.4 z m -16,0 H 64 V 40.4 C 64,40.1791 63.8209,40 63.6,40 H 60 V 36.4 C 60,36.1791 60.1791,36 60.4,36 H 68 v 7.6 c 0,0.2209 -0.1791,0.4 -0.4,0.4 z m -16,0 H 48.4 C 48.1791,44 48,43.8209 48,43.6 V 40.4 C 48,40.1791 48.1791,40 48.4,40 h 3.2 c 0.2209,0 0.4,0.1791 0.4,0.4 v 3.2 c 0,0.2209 -0.1791,0.4 -0.4,0.4 z m -8,0 H 16.4 C 16.1791,44 16,43.8209 16,43.6 V 16.4 C 16,16.1791 16.1791,16 16.4,16 h 27.2 c 0.2209,0 0.4,0.1791 0.4,0.4 V 43.6 C 44,43.8209 43.8209,44 43.6,44 Z M 128,39.6 V 20.4 c 0,-0.2209 -0.179,-0.4 -0.4,-0.4 h -19.2 c -0.221,0 -0.4,0.1791 -0.4,0.4 v 19.2 c 0,0.2209 0.179,0.4 0.4,0.4 h 19.2 c 0.221,0 0.4,-0.1791 0.4,-0.4 z m -88,0 V 20.4 C 40,20.1791 39.8209,20 39.6,20 H 20.4 C 20.1791,20 20,20.1791 20,20.4 v 19.2 c 0,0.2209 0.1791,0.4 0.4,0.4 H 39.6 C 39.8209,40 40,39.8209 40,39.6 Z M 123.6,36 H 112.4 C 112.179,36 112,35.8209 112,35.6 V 24.4 c 0,-0.2209 0.179,-0.4 0.4,-0.4 h 11.2 c 0.221,0 0.4,0.1791 0.4,0.4 v 11.2 c 0,0.2209 -0.179,0.4 -0.4,0.4 z m -28,0 H 92 V 24.4 C 92,24.1791 92.1791,24 92.4,24 h 3.2 C 95.8209,24 96,23.8209 96,23.6 V 20.4 C 96,20.1791 96.1791,20 96.4,20 h 3.2 c 0.2209,0 0.4,0.1791 0.4,0.4 v 11.2 c 0,0.2209 -0.1791,0.4 -0.4,0.4 H 96.4 C 96.1791,32 96,32.1791 96,32.4 V 36 Z m -12,0 H 80.4 C 80.1791,36 80,35.8209 80,35.6 V 32.4 C 80,32.1791 79.8209,32 79.6,32 H 72.4 C 72.1791,32 72,32.1791 72,32.4 V 36 H 68 V 32.4 C 68,32.1791 67.8209,32 67.6,32 H 64.4 C 64.1791,32 64,31.8209 64,31.6 V 24.4 C 64,24.1791 64.1791,24 64.4,24 H 68 v 3.6 c 0,0.2209 0.1791,0.4 0.4,0.4 h 7.2 C 75.8209,28 76,27.8209 76,27.6 V 24 h 4 v 3.6 c 0,0.2209 0.1791,0.4 0.4,0.4 h 7.2 c 0.2209,0 0.4,0.1791 0.4,0.4 v 3.2 C 88,31.8209 87.8209,32 87.6,32 H 84.4 C 84.1791,32 84,32.1791 84,32.4 V 36 Z m -28,0 H 48.4 C 48.1791,36 48,35.8209 48,35.6 V 28.4 C 48,28.1791 48.1791,28 48.4,28 h 3.2 c 0.2209,0 0.4,0.1791 0.4,0.4 v 3.2 c 0,0.2209 0.1791,0.4 0.4,0.4 h 3.2 c 0.2209,0 0.4,0.1791 0.4,0.4 v 3.2 c 0,0.2209 -0.1791,0.4 -0.4,0.4 z m -20,0 H 24.4 C 24.1791,36 24,35.8209 24,35.6 V 24.4 C 24,24.1791 24.1791,24 24.4,24 h 11.2 c 0.2209,0 0.4,0.1791 0.4,0.4 v 11.2 c 0,0.2209 -0.1791,0.4 -0.4,0.4 z m 48,-12 H 80 V 20.4 C 80,20.1791 80.1791,20 80.4,20 H 84 v 3.6 c 0,0.2209 -0.1791,0.4 -0.4,0.4 z m -8,0 H 68 v -4 h 3.6 C 71.8209,20 72,19.8209 72,19.6 V 16.4 C 72,16.1791 72.1791,16 72.4,16 h 3.2 c 0.2209,0 0.4,0.1791 0.4,0.4 V 24 Z m -16,0 H 52.4 C 52.1791,24 52,23.8209 52,23.6 V 20.4 C 52,20.1791 52.1791,20 52.4,20 H 60 v 3.6 c 0,0.2209 -0.1791,0.4 -0.4,0.4 z m 32,-4 H 84 V 16.4 C 84,16.1791 84.1791,16 84.4,16 h 7.2 c 0.2209,0 0.4,0.1791 0.4,0.4 v 3.2 c 0,0.2209 -0.1791,0.4 -0.4,0.4 z m -24,0 H 60 V 16.4 C 60,16.1791 60.1791,16 60.4,16 h 7.2 c 0.2209,0 0.4,0.1791 0.4,0.4 V 20 Z"
             id="path13" />
        </g>
      </g>
    </g>
  </g>
</svg>
